<svg width="18" height="19" viewBox="0 0 18 19" fill="none" xmlns="http://www.w3.org/2000/svg">
<path d="M15.2212 7.84592L9.59619 13.4709C9.5178 13.5496 9.42466 13.612 9.3221 13.6546C9.21954 13.6972 9.10958 13.7191 8.99853 13.7191C8.88748 13.7191 8.77753 13.6972 8.67497 13.6546C8.57241 13.612 8.47926 13.5496 8.40088 13.4709L2.77588 7.84592C2.61737 7.68741 2.52832 7.47242 2.52832 7.24826C2.52832 7.0241 2.61737 6.80911 2.77588 6.6506C2.93439 6.4921 3.14937 6.40305 3.37353 6.40305C3.5977 6.40305 3.81268 6.4921 3.97119 6.6506L8.99924 11.6787L14.0273 6.6499C14.1858 6.49139 14.4008 6.40234 14.6249 6.40234C14.8491 6.40234 15.0641 6.49139 15.2226 6.6499C15.3811 6.80841 15.4702 7.02339 15.4702 7.24756C15.4702 7.47172 15.3811 7.68671 15.2226 7.84521L15.2212 7.84592Z" fill="black"/>
</svg>
