<svg width="17" height="17" viewBox="0 0 17 17" fill="none" xmlns="http://www.w3.org/2000/svg">
<path d="M14.4044 8.06708C14.4044 8.26599 14.3254 8.45676 14.1847 8.59741C14.0441 8.73806 13.8533 8.81708 13.6544 8.81708H4.4669L7.6869 12.0365C7.8278 12.1774 7.90695 12.3684 7.90695 12.5677C7.90695 12.767 7.8278 12.9581 7.6869 13.099C7.546 13.2399 7.35491 13.319 7.15565 13.319C6.95639 13.319 6.7653 13.2399 6.6244 13.099L2.1244 8.59896C2.05448 8.52928 1.999 8.44648 1.96115 8.35532C1.92329 8.26416 1.90381 8.16642 1.90381 8.06771C1.90381 7.969 1.92329 7.87126 1.96115 7.78009C1.999 7.68893 2.05448 7.60613 2.1244 7.53646L6.6244 3.03646C6.69416 2.96669 6.77699 2.91135 6.86814 2.8736C6.95929 2.83584 7.05699 2.81641 7.15565 2.81641C7.25431 2.81641 7.35201 2.83584 7.44316 2.8736C7.53431 2.91135 7.61714 2.96669 7.6869 3.03646C7.75666 3.10622 7.81201 3.18904 7.84976 3.2802C7.88752 3.37135 7.90695 3.46904 7.90695 3.56771C7.90695 3.66637 7.88752 3.76407 7.84976 3.85522C7.81201 3.94637 7.75666 4.02919 7.6869 4.09896L4.4669 7.31708H13.6544C13.8533 7.31708 14.0441 7.3961 14.1847 7.53675C14.3254 7.6774 14.4044 7.86817 14.4044 8.06708Z" fill="black"/>
</svg>
