<svg width="17" height="16" viewBox="0 0 17 16" fill="none" xmlns="http://www.w3.org/2000/svg">
<path d="M14.3218 3H12.0718V2.25C12.0718 1.78587 11.8874 1.34075 11.5592 1.01256C11.231 0.684374 10.7859 0.5 10.3218 0.5H7.32178C6.85765 0.5 6.41253 0.684374 6.08434 1.01256C5.75615 1.34075 5.57178 1.78587 5.57178 2.25V3H3.32178C3.12286 3 2.9321 3.07902 2.79145 3.21967C2.65079 3.36032 2.57178 3.55109 2.57178 3.75C2.57178 3.94891 2.65079 4.13968 2.79145 4.28033C2.9321 4.42098 3.12286 4.5 3.32178 4.5H3.57178V13C3.57178 13.3315 3.70347 13.6495 3.93789 13.8839C4.17231 14.1183 4.49026 14.25 4.82178 14.25H12.8218C13.1533 14.25 13.4712 14.1183 13.7057 13.8839C13.9401 13.6495 14.0718 13.3315 14.0718 13V4.5H14.3218C14.5207 4.5 14.7115 4.42098 14.8521 4.28033C14.9928 4.13968 15.0718 3.94891 15.0718 3.75C15.0718 3.55109 14.9928 3.36032 14.8521 3.21967C14.7115 3.07902 14.5207 3 14.3218 3ZM7.07178 2.25C7.07178 2.1837 7.09812 2.12011 7.145 2.07322C7.19188 2.02634 7.25547 2 7.32178 2H10.3218C10.3881 2 10.4517 2.02634 10.4986 2.07322C10.5454 2.12011 10.5718 2.1837 10.5718 2.25V3H7.07178V2.25ZM12.5718 12.75H5.07178V4.5H12.5718V12.75ZM8.07178 6.5V10.5C8.07178 10.6989 7.99276 10.8897 7.85211 11.0303C7.71146 11.171 7.52069 11.25 7.32178 11.25C7.12287 11.25 6.9321 11.171 6.79145 11.0303C6.65079 10.8897 6.57178 10.6989 6.57178 10.5V6.5C6.57178 6.30109 6.65079 6.11032 6.79145 5.96967C6.9321 5.82902 7.12287 5.75 7.32178 5.75C7.52069 5.75 7.71146 5.82902 7.85211 5.96967C7.99276 6.11032 8.07178 6.30109 8.07178 6.5ZM11.0718 6.5V10.5C11.0718 10.6989 10.9928 10.8897 10.8521 11.0303C10.7115 11.171 10.5207 11.25 10.3218 11.25C10.1229 11.25 9.9321 11.171 9.79145 11.0303C9.6508 10.8897 9.57178 10.6989 9.57178 10.5V6.5C9.57178 6.30109 9.6508 6.11032 9.79145 5.96967C9.9321 5.82902 10.1229 5.75 10.3218 5.75C10.5207 5.75 10.7115 5.82902 10.8521 5.96967C10.9928 6.11032 11.0718 6.30109 11.0718 6.5Z" fill="black"/>
</svg>
