<svg width="50" height="59" viewBox="0 0 50 59" fill="none" xmlns="http://www.w3.org/2000/svg">
<rect x="18.3281" y="10.8633" width="27" height="38.88" fill="white"/>
<path d="M45.1294 7.85236C45.1294 5.93597 43.686 4.38281 41.9237 4.38281H21.5338C19.7632 4.38281 18.3281 5.93597 18.3281 7.85236V8.61641H45.1409V7.85236H45.1294Z" fill="#BFD2D9"/>
<path d="M18.3298 52.25C18.3298 53.847 19.7736 55.1413 21.5367 55.1413H41.934C43.7053 55.1413 45.1409 53.847 45.1409 52.25V51.6133H18.3281V52.25H18.3298Z" fill="#BFD2D9"/>
<rect x="14.8281" y="0.882812" width="34" height="57" rx="4.5" stroke="black" stroke-dasharray="2 2"/>
<circle cx="15.2136" cy="29.2683" r="13" transform="rotate(1.9543 15.2136 29.2683)" fill="#00811F" stroke="#F7F9FA" stroke-width="3"/>
<path d="M13.0825 33.7733L9.3495 29.8755C9.12522 29.6413 9.13774 29.2744 9.37745 29.0561L10.2456 28.2653C10.4853 28.047 10.8615 28.0598 11.0857 28.294L13.6005 30.9197L19.3577 25.6759C19.5974 25.4576 19.9735 25.4704 20.1978 25.7046L21.01 26.5526C21.2343 26.7868 21.2218 27.1537 20.982 27.372L13.9227 33.802C13.683 34.0203 13.3068 34.0075 13.0825 33.7733Z" fill="white"/>
</svg>
