<svg width="14" height="14" viewBox="0 0 14 14" fill="none" xmlns="http://www.w3.org/2000/svg">
<g clip-path="url(#clip0_10078_48914)">
<path d="M13.125 11.1562H12.9062V4.8125C12.9062 4.63845 12.8371 4.47153 12.714 4.34846C12.591 4.22539 12.424 4.15625 12.25 4.15625H8.3125C8.13845 4.15625 7.97153 4.22539 7.84846 4.34846C7.72539 4.47153 7.65625 4.63845 7.65625 4.8125V6.78125H6.34375V2.1875C6.34375 2.01345 6.27461 1.84653 6.15154 1.72346C6.02847 1.60039 5.86155 1.53125 5.6875 1.53125H1.75C1.57595 1.53125 1.40903 1.60039 1.28596 1.72346C1.16289 1.84653 1.09375 2.01345 1.09375 2.1875V11.1562H0.875C0.700952 11.1562 0.534032 11.2254 0.410961 11.3485C0.28789 11.4715 0.21875 11.6385 0.21875 11.8125C0.21875 11.9865 0.28789 12.1535 0.410961 12.2765C0.534032 12.3996 0.700952 12.4688 0.875 12.4688H13.125C13.299 12.4688 13.466 12.3996 13.589 12.2765C13.7121 12.1535 13.7812 11.9865 13.7812 11.8125C13.7812 11.6385 13.7121 11.4715 13.589 11.3485C13.466 11.2254 13.299 11.1562 13.125 11.1562ZM8.96875 5.46875H11.5938V11.1562H8.96875V5.46875ZM7.65625 8.09375V11.1562H6.34375V8.09375H7.65625ZM2.40625 2.84375H5.03125V11.1562H2.40625V2.84375ZM4.375 4.15625V4.59375C4.375 4.7678 4.30586 4.93472 4.18279 5.05779C4.05972 5.18086 3.8928 5.25 3.71875 5.25C3.5447 5.25 3.37778 5.18086 3.25471 5.05779C3.13164 4.93472 3.0625 4.7678 3.0625 4.59375V4.15625C3.0625 3.9822 3.13164 3.81528 3.25471 3.69221C3.37778 3.56914 3.5447 3.5 3.71875 3.5C3.8928 3.5 4.05972 3.56914 4.18279 3.69221C4.30586 3.81528 4.375 3.9822 4.375 4.15625ZM4.375 6.78125V7.21875C4.375 7.3928 4.30586 7.55972 4.18279 7.68279C4.05972 7.80586 3.8928 7.875 3.71875 7.875C3.5447 7.875 3.37778 7.80586 3.25471 7.68279C3.13164 7.55972 3.0625 7.3928 3.0625 7.21875V6.78125C3.0625 6.6072 3.13164 6.44028 3.25471 6.31721C3.37778 6.19414 3.5447 6.125 3.71875 6.125C3.8928 6.125 4.05972 6.19414 4.18279 6.31721C4.30586 6.44028 4.375 6.6072 4.375 6.78125ZM4.375 9.40625V9.84375C4.375 10.0178 4.30586 10.1847 4.18279 10.3078C4.05972 10.4309 3.8928 10.5 3.71875 10.5C3.5447 10.5 3.37778 10.4309 3.25471 10.3078C3.13164 10.1847 3.0625 10.0178 3.0625 9.84375V9.40625C3.0625 9.2322 3.13164 9.06528 3.25471 8.94221C3.37778 8.81914 3.5447 8.75 3.71875 8.75C3.8928 8.75 4.05972 8.81914 4.18279 8.94221C4.30586 9.06528 4.375 9.2322 4.375 9.40625ZM9.625 9.84375V9.40625C9.625 9.2322 9.69414 9.06528 9.81721 8.94221C9.94028 8.81914 10.1072 8.75 10.2812 8.75C10.4553 8.75 10.6222 8.81914 10.7453 8.94221C10.8684 9.06528 10.9375 9.2322 10.9375 9.40625V9.84375C10.9375 10.0178 10.8684 10.1847 10.7453 10.3078C10.6222 10.4309 10.4553 10.5 10.2812 10.5C10.1072 10.5 9.94028 10.4309 9.81721 10.3078C9.69414 10.1847 9.625 10.0178 9.625 9.84375ZM9.625 7.21875V6.78125C9.625 6.6072 9.69414 6.44028 9.81721 6.31721C9.94028 6.19414 10.1072 6.125 10.2812 6.125C10.4553 6.125 10.6222 6.19414 10.7453 6.31721C10.8684 6.44028 10.9375 6.6072 10.9375 6.78125V7.21875C10.9375 7.3928 10.8684 7.55972 10.7453 7.68279C10.6222 7.80586 10.4553 7.875 10.2812 7.875C10.1072 7.875 9.94028 7.80586 9.81721 7.68279C9.69414 7.55972 9.625 7.3928 9.625 7.21875Z" fill="black"/>
</g>
<defs>
<clipPath id="clip0_10078_48914">
<rect width="14" height="14" fill="white"/>
</clipPath>
</defs>
</svg>
