<svg width="14" height="15" viewBox="0 0 14 15" fill="none" xmlns="http://www.w3.org/2000/svg">
<path d="M7.65625 4.87502V7.12869L9.52492 8.24978C9.60049 8.29326 9.66663 8.35135 9.7195 8.42067C9.77236 8.48999 9.81088 8.56915 9.83281 8.65353C9.85474 8.7379 9.85964 8.8258 9.84723 8.91209C9.83481 8.99837 9.80533 9.08133 9.76049 9.15609C9.71566 9.23086 9.65638 9.29595 9.58612 9.34755C9.51585 9.39915 9.43601 9.43624 9.35126 9.45664C9.2665 9.47704 9.17853 9.48035 9.09248 9.46638C9.00643 9.45241 8.92402 9.42143 8.85008 9.37525L6.66258 8.06275C6.56536 8.00447 6.4849 7.92201 6.42902 7.82339C6.37315 7.72477 6.34377 7.61336 6.34375 7.50002V4.87502C6.34375 4.70097 6.41289 4.53405 6.53596 4.41098C6.65903 4.28791 6.82595 4.21877 7 4.21877C7.17405 4.21877 7.34097 4.28791 7.46404 4.41098C7.58711 4.53405 7.65625 4.70097 7.65625 4.87502ZM7 2.03127C6.28091 2.02942 5.5686 2.17029 4.90435 2.44571C4.2401 2.72114 3.6371 3.12565 3.13031 3.6358C2.87383 3.89502 2.63812 4.14822 2.40625 4.40142V4.00002C2.40625 3.82597 2.33711 3.65905 2.21404 3.53598C2.09097 3.41291 1.92405 3.34377 1.75 3.34377C1.57595 3.34377 1.40903 3.41291 1.28596 3.53598C1.16289 3.65905 1.09375 3.82597 1.09375 4.00002V6.18752C1.09375 6.36157 1.16289 6.52849 1.28596 6.65156C1.40903 6.77463 1.57595 6.84377 1.75 6.84377H3.9375C4.11155 6.84377 4.27847 6.77463 4.40154 6.65156C4.52461 6.52849 4.59375 6.36157 4.59375 6.18752C4.59375 6.01347 4.52461 5.84655 4.40154 5.72348C4.27847 5.60041 4.11155 5.53127 3.9375 5.53127H3.1593C3.44531 5.20314 3.73898 4.88705 4.06109 4.56111C4.63868 3.98336 5.37373 3.58863 6.17438 3.42627C6.97503 3.2639 7.80578 3.34109 8.56281 3.64819C9.31984 3.95529 9.96958 4.47868 10.4308 5.15296C10.8921 5.82724 11.1444 6.6225 11.1562 7.43936C11.1681 8.25622 10.9389 9.05846 10.4974 9.74583C10.0559 10.4332 9.4216 10.9752 8.67379 11.3041C7.92597 11.633 7.09781 11.7343 6.29279 11.5952C5.48777 11.4561 4.74159 11.0828 4.1475 10.522C4.02088 10.4025 3.85197 10.3382 3.67793 10.3432C3.50388 10.3483 3.33897 10.4222 3.21945 10.5488C3.09994 10.6755 3.03562 10.8444 3.04065 11.0184C3.04567 11.1925 3.11963 11.3574 3.24625 11.4769C3.89541 12.0897 4.68469 12.5342 5.5452 12.7717C6.4057 13.0092 7.31126 13.0324 8.18282 12.8394C9.05437 12.6463 9.86541 12.2428 10.5451 11.6642C11.2249 11.0855 11.7526 10.3493 12.0823 9.51969C12.412 8.69012 12.5335 7.79246 12.4364 6.90508C12.3393 6.0177 12.0265 5.16759 11.5252 4.42896C11.0239 3.69033 10.3494 3.08564 9.56058 2.66769C8.77179 2.24975 7.89268 2.03125 7 2.03127Z" fill="black"/>
</svg>
