<svg width="14" height="14" viewBox="0 0 14 14" fill="none" xmlns="http://www.w3.org/2000/svg">
<path d="M11.8125 2.40625H2.18751C1.89743 2.40625 1.61923 2.52148 1.41411 2.7266C1.20899 2.93172 1.09376 3.20992 1.09376 3.5V12.25C1.09289 12.4583 1.15205 12.6624 1.26416 12.838C1.37628 13.0135 1.5366 13.153 1.72595 13.2398C1.87129 13.3079 2.02976 13.3434 2.19024 13.3438C2.44707 13.3431 2.6954 13.2517 2.89134 13.0856L2.8979 13.0796L4.61946 11.5938H11.8125C12.1026 11.5938 12.3808 11.4785 12.5859 11.2734C12.791 11.0683 12.9063 10.7901 12.9063 10.5V3.5C12.9063 3.20992 12.791 2.93172 12.5859 2.7266C12.3808 2.52148 12.1026 2.40625 11.8125 2.40625ZM11.5938 10.2812H4.37501C4.2175 10.281 4.06521 10.3377 3.94626 10.4409L2.40626 11.7704V3.71875H11.5938V10.2812Z" fill="black"/>
</svg>
