<svg width="17" height="18" viewBox="0 0 17 18" fill="none" xmlns="http://www.w3.org/2000/svg">
<path d="M8.5163 17.4661C10.5636 17.4661 12.5409 16.7249 14.0832 15.3785L8.08679 9.38216C7.97276 9.26812 7.90814 9.11381 7.90814 8.95189V0.46875C4.94634 0.678561 2.30779 2.41721 0.946872 5.05576C-0.414653 7.69508 -0.301389 10.8531 1.24486 13.3875C2.79111 15.9227 5.54676 17.4683 8.51615 17.466L8.5163 17.4661Z" fill="black"/>
<path d="M9.125 0.46875V8.34372H17C16.8517 6.30419 15.9745 4.3861 14.5286 2.94013C13.0827 1.49416 11.1647 0.61685 9.125 0.46875Z" fill="black"/>
<path d="M9.98438 9.5625L14.9431 14.5212C16.1488 13.1354 16.8702 11.3946 16.9994 9.5625H9.98438Z" fill="black"/>
</svg>
