<svg class="icon icon--dashboard" width="18" height="13" viewBox="0 0 18 13" fill="none" xmlns="http://www.w3.org/2000/svg">
    <path d="M8.93563 0.398447C6.11669 0.394274 3.47128 1.76163 1.84416 4.063C0.216352 6.36521 -0.189339 9.31535 0.754773 11.9717C0.851605 12.2396 1.10454 12.4183 1.38921 12.4191H7.0523C6.97132 12.2054 6.93042 11.9792 6.93209 11.7513C6.92875 10.8965 7.47218 10.136 8.28108 9.86136C8.27273 9.8238 8.26856 9.78623 8.26772 9.74783V5.74093C8.26772 5.37195 8.56657 5.07311 8.93554 5.07311C9.30452 5.07311 9.60336 5.37195 9.60336 5.74093V9.74783C9.60252 9.78623 9.59835 9.8238 9.59 9.86136C10.3989 10.136 10.9423 10.8965 10.939 11.7513C10.9407 11.9792 10.8998 12.2054 10.8188 12.4191H16.4819C16.7665 12.4183 17.0195 12.2396 17.1163 11.9717C18.0604 9.31535 17.6547 6.36542 16.0269 4.063C14.4 1.76144 11.7548 0.394173 8.93563 0.398447ZM3.59309 9.74789H2.92527C2.5563 9.74789 2.25746 9.44905 2.25746 9.08007C2.25746 8.71109 2.5563 8.41225 2.92527 8.41225H3.59309C3.96207 8.41225 4.26091 8.71109 4.26091 9.08007C4.26091 9.44905 3.96207 9.74789 3.59309 9.74789ZM5.62992 5.77432C5.50471 5.90037 5.33358 5.97049 5.15576 5.96799C4.97963 5.97049 4.811 5.90037 4.68829 5.77432L4.21413 5.30016C3.98707 5.03553 4.0021 4.63987 4.24919 4.3936C4.49544 4.14651 4.89113 4.13147 5.15575 4.35854L5.62991 4.8327C5.88868 5.09316 5.88869 5.51388 5.62992 5.77432ZM9.60349 3.73749C9.60349 4.10647 9.30465 4.40531 8.93567 4.40531C8.56669 4.40531 8.26785 4.10647 8.26785 3.73749V3.06967C8.26785 2.7007 8.56669 2.40186 8.93567 2.40186C9.30465 2.40186 9.60349 2.7007 9.60349 3.06967V3.73749ZM12.7154 5.96811C12.5376 5.97061 12.3665 5.90049 12.2412 5.77444C11.9825 5.51398 11.9825 5.09327 12.2412 4.83283L12.7154 4.35867C12.8365 4.21759 13.0109 4.13328 13.1971 4.12578C13.3824 4.11826 13.5635 4.18922 13.6946 4.32111C13.8265 4.45217 13.8974 4.63331 13.8899 4.81863C13.8824 5.00478 13.7981 5.17925 13.657 5.30029L13.1829 5.77445C13.0602 5.9005 12.8915 5.97061 12.7154 5.96811ZM15.6136 9.08003C15.6136 9.257 15.5435 9.42729 15.4183 9.5525C15.2931 9.67772 15.1228 9.74784 14.9458 9.74784H14.278C13.909 9.74784 13.6102 9.44899 13.6102 9.08002C13.6102 8.71104 13.909 8.4122 14.278 8.4122H14.9458C15.1228 8.4122 15.2931 8.48232 15.4183 8.60754C15.5435 8.73275 15.6136 8.90306 15.6136 9.08003Z" fill="black"/>
</svg>
