<svg width="32" height="33" viewBox="0 0 32 33" fill="none" xmlns="http://www.w3.org/2000/svg">
<path d="M26 4.55469H6C5.46957 4.55469 4.96086 4.7654 4.58579 5.14047C4.21071 5.51555 4 6.02425 4 6.55469V26.5547C4 27.0851 4.21071 27.5938 4.58579 27.9689C4.96086 28.344 5.46957 28.5547 6 28.5547H26C26.5304 28.5547 27.0391 28.344 27.4142 27.9689C27.7893 27.5938 28 27.0851 28 26.5547V6.55469C28 6.02425 27.7893 5.51555 27.4142 5.14047C27.0391 4.7654 26.5304 4.55469 26 4.55469ZM20.7075 19.8472C20.8004 19.9401 20.8741 20.0504 20.9244 20.1718C20.9747 20.2932 21.0006 20.4233 21.0006 20.5547C21.0006 20.6861 20.9747 20.8162 20.9244 20.9376C20.8741 21.059 20.8004 21.1693 20.7075 21.2622C20.6146 21.3551 20.5043 21.4288 20.3829 21.4791C20.2615 21.5294 20.1314 21.5552 20 21.5552C19.8686 21.5552 19.7385 21.5294 19.6171 21.4791C19.4957 21.4288 19.3854 21.3551 19.2925 21.2622L16 17.9684L12.7075 21.2622C12.6146 21.3551 12.5043 21.4288 12.3829 21.4791C12.2615 21.5294 12.1314 21.5552 12 21.5552C11.8686 21.5552 11.7385 21.5294 11.6171 21.4791C11.4957 21.4288 11.3854 21.3551 11.2925 21.2622C11.1996 21.1693 11.1259 21.059 11.0756 20.9376C11.0253 20.8162 10.9994 20.6861 10.9994 20.5547C10.9994 20.4233 11.0253 20.2932 11.0756 20.1718C11.1259 20.0504 11.1996 19.9401 11.2925 19.8472L14.5863 16.5547L11.2925 13.2622C11.1049 13.0745 10.9994 12.8201 10.9994 12.5547C10.9994 12.2893 11.1049 12.0348 11.2925 11.8472C11.4801 11.6595 11.7346 11.5541 12 11.5541C12.2654 11.5541 12.5199 11.6595 12.7075 11.8472L16 15.1409L19.2925 11.8472C19.3854 11.7543 19.4957 11.6806 19.6171 11.6303C19.7385 11.58 19.8686 11.5541 20 11.5541C20.1314 11.5541 20.2615 11.58 20.3829 11.6303C20.5043 11.6806 20.6146 11.7543 20.7075 11.8472C20.8004 11.9401 20.8741 12.0504 20.9244 12.1718C20.9747 12.2932 21.0006 12.4233 21.0006 12.5547C21.0006 12.6861 20.9747 12.8162 20.9244 12.9376C20.8741 13.059 20.8004 13.1693 20.7075 13.2622L17.4137 16.5547L20.7075 19.8472Z" fill="#D22D1F"/>
</svg>
