<svg width="24" height="24" viewBox="0 0 24 24" fill="none" xmlns="http://www.w3.org/2000/svg">
<path d="M20.625 4.5V9C20.625 9.29837 20.5065 9.58452 20.2955 9.7955C20.0845 10.0065 19.7984 10.125 19.5 10.125C19.2016 10.125 18.9155 10.0065 18.7045 9.7955C18.4935 9.58452 18.375 9.29837 18.375 9V7.21875L15.0459 10.5487C14.8346 10.7601 14.5479 10.8788 14.2491 10.8788C13.9502 10.8788 13.6635 10.7601 13.4522 10.5487C13.2408 10.3374 13.1221 10.0508 13.1221 9.75187C13.1221 9.45299 13.2408 9.16634 13.4522 8.955L16.7812 5.625H15C14.7016 5.625 14.4155 5.50647 14.2045 5.2955C13.9935 5.08452 13.875 4.79837 13.875 4.5C13.875 4.20163 13.9935 3.91548 14.2045 3.7045C14.4155 3.49353 14.7016 3.375 15 3.375H19.5C19.7984 3.375 20.0845 3.49353 20.2955 3.7045C20.5065 3.91548 20.625 4.20163 20.625 4.5ZM8.95406 13.4541L5.625 16.7812V15C5.625 14.7016 5.50647 14.4155 5.2955 14.2045C5.08452 13.9935 4.79837 13.875 4.5 13.875C4.20163 13.875 3.91548 13.9935 3.7045 14.2045C3.49353 14.4155 3.375 14.7016 3.375 15V19.5C3.375 19.7984 3.49353 20.0845 3.7045 20.2955C3.91548 20.5065 4.20163 20.625 4.5 20.625H9C9.29837 20.625 9.58452 20.5065 9.7955 20.2955C10.0065 20.0845 10.125 19.7984 10.125 19.5C10.125 19.2016 10.0065 18.9155 9.7955 18.7045C9.58452 18.4935 9.29837 18.375 9 18.375H7.21875L10.5487 15.0459C10.7601 14.8346 10.8788 14.5479 10.8788 14.2491C10.8788 13.9502 10.7601 13.6635 10.5487 13.4522C10.3374 13.2408 10.0508 13.1221 9.75187 13.1221C9.45299 13.1221 9.16634 13.2408 8.955 13.4522L8.95406 13.4541ZM19.5 13.875C19.2016 13.875 18.9155 13.9935 18.7045 14.2045C18.4935 14.4155 18.375 14.7016 18.375 15V16.7812L15.0459 13.4513C14.8346 13.2399 14.5479 13.1212 14.2491 13.1212C13.9502 13.1212 13.6635 13.2399 13.4522 13.4513C13.2408 13.6626 13.1221 13.9492 13.1221 14.2481C13.1221 14.547 13.2408 14.8337 13.4522 15.045L16.7812 18.375H15C14.7016 18.375 14.4155 18.4935 14.2045 18.7045C13.9935 18.9155 13.875 19.2016 13.875 19.5C13.875 19.7984 13.9935 20.0845 14.2045 20.2955C14.4155 20.5065 14.7016 20.625 15 20.625H19.5C19.7984 20.625 20.0845 20.5065 20.2955 20.2955C20.5065 20.0845 20.625 19.7984 20.625 19.5V15C20.625 14.7016 20.5065 14.4155 20.2955 14.2045C20.0845 13.9935 19.7984 13.875 19.5 13.875ZM7.21875 5.625H9C9.29837 5.625 9.58452 5.50647 9.7955 5.2955C10.0065 5.08452 10.125 4.79837 10.125 4.5C10.125 4.20163 10.0065 3.91548 9.7955 3.7045C9.58452 3.49353 9.29837 3.375 9 3.375H4.5C4.20163 3.375 3.91548 3.49353 3.7045 3.7045C3.49353 3.91548 3.375 4.20163 3.375 4.5V9C3.375 9.29837 3.49353 9.58452 3.7045 9.7955C3.91548 10.0065 4.20163 10.125 4.5 10.125C4.79837 10.125 5.08452 10.0065 5.2955 9.7955C5.50647 9.58452 5.625 9.29837 5.625 9V7.21875L8.95406 10.5487C9.16541 10.7601 9.45205 10.8788 9.75094 10.8788C10.0498 10.8788 10.3365 10.7601 10.5478 10.5487C10.7592 10.3374 10.8779 10.0508 10.8779 9.75187C10.8779 9.45299 10.7592 9.16634 10.5478 8.955L7.21875 5.625Z" fill="black"/>
</svg>
