<svg width="14" height="14" viewBox="0 0 14 14" fill="none" xmlns="http://www.w3.org/2000/svg">
<path d="M12.1483 5.78899L7.77329 1.41399C7.56818 1.20894 7.29003 1.09375 7.00001 1.09375C6.70998 1.09375 6.43183 1.20894 6.22672 1.41399L1.85172 5.78899C1.74975 5.89034 1.66891 6.01093 1.6139 6.14376C1.55888 6.2766 1.53079 6.41904 1.53126 6.56281V11.8128C1.53126 11.9869 1.6004 12.1538 1.72347 12.2769C1.84654 12.3999 2.01346 12.4691 2.18751 12.4691H5.68751C5.86155 12.4691 6.02847 12.3999 6.15154 12.2769C6.27462 12.1538 6.34376 11.9869 6.34376 11.8128V8.96906H7.65626V11.8128C7.65626 11.9869 7.7254 12.1538 7.84847 12.2769C7.97154 12.3999 8.13846 12.4691 8.31251 12.4691H11.8125C11.9866 12.4691 12.1535 12.3999 12.2765 12.2769C12.3996 12.1538 12.4688 11.9869 12.4688 11.8128V6.56281C12.4692 6.41904 12.4411 6.2766 12.3861 6.14376C12.3311 6.01093 12.2503 5.89034 12.1483 5.78899ZM11.1563 11.1566H8.96876V8.31281C8.96876 8.13877 8.89962 7.97185 8.77655 7.84877C8.65347 7.7257 8.48655 7.65656 8.31251 7.65656H5.68751C5.51346 7.65656 5.34654 7.7257 5.22347 7.84877C5.1004 7.97185 5.03126 8.13877 5.03126 8.31281V11.1566H2.84376V6.65305L7.00001 2.4968L11.1563 6.65305V11.1566Z" fill="black"/>
</svg>
