<svg width="14" height="15" viewBox="0 0 14 15" fill="none" xmlns="http://www.w3.org/2000/svg">
<path d="M7 0.777344C5.14381 0.777344 3.36343 1.51487 2.05015 2.82749C0.737512 4.1407 0 5.92115 0 7.77734C0 9.63354 0.737527 11.4139 2.05015 12.7272C3.36335 14.0398 5.14381 14.7773 7 14.7773C8.8562 14.7773 10.6366 14.0398 11.9499 12.7272C13.2625 11.414 14 9.63354 14 7.77734C14 5.92115 13.2625 4.14077 11.9499 2.82749C10.6366 1.51486 8.8562 0.777344 7 0.777344ZM7 3.23728C7.2422 3.23728 7.47466 3.33371 7.64627 3.50474C7.81788 3.67636 7.9143 3.90881 7.91373 4.15158C7.9143 4.39379 7.81788 4.62625 7.64627 4.79785C7.47465 4.96889 7.2422 5.06531 7 5.06531C6.7578 5.06531 6.52534 4.96889 6.35373 4.79785C6.18212 4.62623 6.0857 4.39379 6.08627 4.15158C6.0857 3.90881 6.18212 3.67635 6.35373 3.50474C6.52535 3.3337 6.7578 3.23728 7 3.23728ZM7 6.20869C7.48097 6.20869 7.86781 6.59554 7.86781 7.07651V11.4495C7.86781 11.9305 7.48097 12.3173 7 12.3173C6.51903 12.3173 6.13219 11.9305 6.13219 11.4495V7.07651C6.13219 6.59554 6.51903 6.20869 7 6.20869Z" fill="black"/>
</svg>
