<svg width="12" height="12" viewBox="0 0 24 24" fill="none" xmlns="http://www.w3.org/2000/svg">
<g clip-path="url(#clip0_5417_106990)">
<path fill-rule="evenodd" clip-rule="evenodd" d="M12 4.125C7.65076 4.125 4.125 7.65076 4.125 12C4.125 16.3492 7.65076 19.875 12 19.875C16.3492 19.875 19.875 16.3492 19.875 12C19.875 7.65076 16.3492 4.125 12 4.125ZM1.875 12C1.875 6.40812 6.40812 1.875 12 1.875C17.5919 1.875 22.125 6.40812 22.125 12C22.125 17.5919 17.5919 22.125 12 22.125C6.40812 22.125 1.875 17.5919 1.875 12Z" fill="black"/>
<path d="M11.0048 6.32567H13.3923V8.38765H11.0048V6.32567ZM9.85748 9.65895H13.3923V17.6743H11.2218V11.3644H9.85748V9.65895Z" fill="black"/>
</g>
<defs>
<clipPath id="clip0_5417_106990">
<rect width="24" height="24" fill="white"/>
</clipPath>
</defs>
</svg>
