<svg width="73" height="73" viewBox="0 0 73 73" fill="none" xmlns="http://www.w3.org/2000/svg">
<g filter="url(#filter0_d_7639_109710)">
<circle cx="36.3901" cy="32.3901" r="22.3901" fill="white"/>
<g clip-path="url(#clip0_7639_109710)">
<path d="M25.2345 31.1018L35.7345 37.1018C35.9044 37.1988 36.0966 37.2498 36.2923 37.2498C36.4879 37.2498 36.6802 37.1988 36.8501 37.1018L47.3501 31.1018C47.5224 31.0034 47.6655 30.8612 47.7651 30.6897C47.8647 30.5181 47.9171 30.3233 47.9171 30.1249C47.9171 29.9265 47.8647 29.7317 47.7651 29.5601C47.6655 29.3886 47.5224 29.2464 47.3501 29.148L36.8501 23.148C36.6802 23.051 36.4879 23 36.2923 23C36.0966 23 35.9044 23.051 35.7345 23.148L25.2345 29.148C25.0622 29.2464 24.9191 29.3886 24.8195 29.5601C24.7199 29.7317 24.6675 29.9265 24.6675 30.1249C24.6675 30.3233 24.7199 30.5181 24.8195 30.6897C24.9191 30.8612 25.0622 31.0034 25.2345 31.1018ZM36.297 25.4205L44.5245 30.1249L36.2923 34.8293L28.0601 30.1249L36.297 25.4205ZM47.7739 34.0671C47.9218 34.3262 47.9607 34.6334 47.8821 34.9212C47.8035 35.209 47.6139 35.4538 47.3548 35.6018L36.8548 41.6018C36.6849 41.6988 36.4926 41.7498 36.297 41.7498C36.1013 41.7498 35.9091 41.6988 35.7392 41.6018L25.2392 35.6018C25.109 35.5295 24.9945 35.4321 24.9022 35.3153C24.8099 35.1984 24.7418 35.0644 24.7017 34.9211C24.6616 34.7777 24.6504 34.6278 24.6687 34.48C24.687 34.3322 24.7344 34.1896 24.8082 34.0603C24.882 33.931 24.9808 33.8177 25.0988 33.7268C25.2167 33.636 25.3515 33.5695 25.4954 33.5311C25.6392 33.4928 25.7893 33.4834 25.9368 33.5034C26.0843 33.5235 26.2264 33.5726 26.3548 33.648L36.2923 39.3293L46.2298 33.648C46.3583 33.5741 46.5001 33.5262 46.6472 33.5072C46.7942 33.4883 46.9436 33.4986 47.0866 33.5375C47.2297 33.5764 47.3636 33.6433 47.4808 33.7342C47.5979 33.8251 47.6959 33.9382 47.7692 34.0671H47.7739Z" fill="black"/>
</g>
</g>
<defs>
<filter id="filter0_d_7639_109710" x="0" y="0" width="72.7812" height="72.7812" filterUnits="userSpaceOnUse" color-interpolation-filters="sRGB">
<feFlood flood-opacity="0" result="BackgroundImageFix"/>
<feColorMatrix in="SourceAlpha" type="matrix" values="0 0 0 0 0 0 0 0 0 0 0 0 0 0 0 0 0 0 127 0" result="hardAlpha"/>
<feOffset dy="4"/>
<feGaussianBlur stdDeviation="7"/>
<feComposite in2="hardAlpha" operator="out"/>
<feColorMatrix type="matrix" values="0 0 0 0 0 0 0 0 0 0 0 0 0 0 0 0 0 0 0.07 0"/>
<feBlend mode="normal" in2="BackgroundImageFix" result="effect1_dropShadow_7639_109710"/>
<feBlend mode="normal" in="SourceGraphic" in2="effect1_dropShadow_7639_109710" result="shape"/>
</filter>
<clipPath id="clip0_7639_109710">
<rect width="24" height="24" fill="white" transform="translate(24.293 20.75)"/>
</clipPath>
</defs>
</svg>