<svg width="14" height="14" viewBox="0 0 14 14" fill="none" xmlns="http://www.w3.org/2000/svg">
<path d="M12.4687 7.00014C12.4687 7.17419 12.3996 7.34111 12.2765 7.46418C12.1534 7.58725 11.9865 7.65639 11.8125 7.65639H6.34372C6.16967 7.65639 6.00275 7.58725 5.87968 7.46418C5.75661 7.34111 5.68747 7.17419 5.68747 7.00014C5.68747 6.82609 5.75661 6.65917 5.87968 6.5361C6.00275 6.41303 6.16967 6.34389 6.34372 6.34389H11.8125C11.9865 6.34389 12.1534 6.41303 12.2765 6.5361C12.3996 6.65917 12.4687 6.82609 12.4687 7.00014ZM6.34372 4.15639H11.8125C11.9865 4.15639 12.1534 4.08725 12.2765 3.96418C12.3996 3.84111 12.4687 3.67419 12.4687 3.50014C12.4687 3.32609 12.3996 3.15917 12.2765 3.0361C12.1534 2.91303 11.9865 2.84389 11.8125 2.84389H6.34372C6.16967 2.84389 6.00275 2.91303 5.87968 3.0361C5.75661 3.15917 5.68747 3.32609 5.68747 3.50014C5.68747 3.67419 5.75661 3.84111 5.87968 3.96418C6.00275 4.08725 6.16967 4.15639 6.34372 4.15639ZM11.8125 9.84389H6.34372C6.16967 9.84389 6.00275 9.91303 5.87968 10.0361C5.75661 10.1592 5.68747 10.3261 5.68747 10.5001C5.68747 10.6742 5.75661 10.8411 5.87968 10.9642C6.00275 11.0872 6.16967 11.1564 6.34372 11.1564H11.8125C11.9865 11.1564 12.1534 11.0872 12.2765 10.9642C12.3996 10.8411 12.4687 10.6742 12.4687 10.5001C12.4687 10.3261 12.3996 10.1592 12.2765 10.0361C12.1534 9.91303 11.9865 9.84389 11.8125 9.84389ZM2.40622 3.24365V5.68764C2.40622 5.86169 2.47536 6.02861 2.59843 6.15168C2.7215 6.27475 2.88842 6.34389 3.06247 6.34389C3.23652 6.34389 3.40344 6.27475 3.52651 6.15168C3.64958 6.02861 3.71872 5.86169 3.71872 5.68764V2.18764C3.71866 2.07584 3.69004 1.96591 3.63558 1.86828C3.58111 1.77064 3.5026 1.68854 3.40751 1.62976C3.31241 1.57098 3.20387 1.53747 3.09218 1.53241C2.9805 1.52735 2.86937 1.5509 2.76935 1.60084L1.89435 2.03834C1.74951 2.11554 1.63885 2.24421 1.5842 2.39897C1.52955 2.55374 1.53488 2.72336 1.59914 2.87439C1.66339 3.02542 1.78191 3.14689 1.93131 3.21484C2.08072 3.28279 2.25016 3.29229 2.40622 3.24147V3.24365ZM4.57896 8.54068C4.55084 8.33834 4.48208 8.14377 4.37682 7.96868C4.27156 7.79359 4.13197 7.6416 3.96646 7.52186C3.63648 7.28236 3.22669 7.1797 2.82278 7.23535C2.41887 7.291 2.05211 7.50065 1.79919 7.82045C1.70214 7.94517 1.6252 8.0843 1.57114 8.23279C1.51417 8.39572 1.52367 8.57453 1.59759 8.7305C1.67152 8.88647 1.80391 9.00704 1.96609 9.06608C2.12828 9.12513 2.3072 9.11791 2.4641 9.04598C2.621 8.97405 2.74324 8.8432 2.80435 8.68178C2.81222 8.66211 2.8229 8.64369 2.83607 8.62709C2.87846 8.57575 2.93885 8.54253 3.00491 8.53419C3.07097 8.52586 3.13772 8.54305 3.19154 8.58225C3.21521 8.5986 3.23526 8.61968 3.25041 8.64415C3.26556 8.66861 3.27549 8.69595 3.27958 8.72443C3.28325 8.75122 3.2814 8.77847 3.27416 8.80452C3.26692 8.83057 3.25444 8.85487 3.23747 8.87592L3.23036 8.88522L1.66193 10.9825C1.58909 11.08 1.54482 11.1959 1.53406 11.3172C1.52331 11.4384 1.54649 11.5603 1.60102 11.6691C1.65555 11.7779 1.73928 11.8695 1.84285 11.9334C1.94642 11.9974 2.06574 12.0313 2.18747 12.0314H3.93747C4.11152 12.0314 4.27844 11.9622 4.40151 11.8392C4.52458 11.7161 4.59372 11.5492 4.59372 11.3751C4.59372 11.2011 4.52458 11.0342 4.40151 10.9111C4.27844 10.788 4.11152 10.7189 3.93747 10.7189H3.49997L4.28091 9.67381C4.40394 9.51452 4.49371 9.33214 4.54491 9.13749C4.59611 8.94284 4.60769 8.73989 4.57896 8.54068Z" fill="black"/>
</svg>
