<svg width="73" height="73" viewBox="0 0 73 73" fill="none" xmlns="http://www.w3.org/2000/svg">
<g filter="url(#filter0_d_7639_109748)">
<circle cx="36.3901" cy="32.3901" r="22.3901" fill="#244048"/>
</g>
<path d="M37.125 32.0156V40.6406C37.125 40.939 37.0065 41.2251 36.7955 41.4361C36.5845 41.6471 36.2984 41.7656 36 41.7656C35.7016 41.7656 35.4155 41.6471 35.2045 41.4361C34.9935 41.2251 34.875 40.939 34.875 40.6406V32.0156C34.875 31.7173 34.9935 31.4311 35.2045 31.2201C35.4155 31.0092 35.7016 30.8906 36 30.8906C36.2984 30.8906 36.5845 31.0092 36.7955 31.2201C37.0065 31.4311 37.125 31.7173 37.125 32.0156ZM42.75 38.3906C42.4516 38.3906 42.1655 38.5092 41.9545 38.7201C41.7435 38.9311 41.625 39.2173 41.625 39.5156V40.6406C41.625 40.939 41.7435 41.2251 41.9545 41.4361C42.1655 41.6471 42.4516 41.7656 42.75 41.7656C43.0484 41.7656 43.3345 41.6471 43.5455 41.4361C43.7565 41.2251 43.875 40.939 43.875 40.6406V39.5156C43.875 39.2173 43.7565 38.9311 43.5455 38.7201C43.3345 38.5092 43.0484 38.3906 42.75 38.3906ZM45 34.6406H43.875V24.1406C43.875 23.8423 43.7565 23.5561 43.5455 23.3451C43.3345 23.1342 43.0484 23.0156 42.75 23.0156C42.4516 23.0156 42.1655 23.1342 41.9545 23.3451C41.7435 23.5561 41.625 23.8423 41.625 24.1406V34.6406H40.5C40.2016 34.6406 39.9155 34.7592 39.7045 34.9701C39.4935 35.1811 39.375 35.4673 39.375 35.7656C39.375 36.064 39.4935 36.3501 39.7045 36.5611C39.9155 36.7721 40.2016 36.8906 40.5 36.8906H45C45.2984 36.8906 45.5845 36.7721 45.7955 36.5611C46.0065 36.3501 46.125 36.064 46.125 35.7656C46.125 35.4673 46.0065 35.1811 45.7955 34.9701C45.5845 34.7592 45.2984 34.6406 45 34.6406ZM29.25 35.3906C28.9516 35.3906 28.6655 35.5092 28.4545 35.7201C28.2435 35.9311 28.125 36.2173 28.125 36.5156V40.6406C28.125 40.939 28.2435 41.2251 28.4545 41.4361C28.6655 41.6471 28.9516 41.7656 29.25 41.7656C29.5484 41.7656 29.8345 41.6471 30.0455 41.4361C30.2565 41.2251 30.375 40.939 30.375 40.6406V36.5156C30.375 36.2173 30.2565 35.9311 30.0455 35.7201C29.8345 35.5092 29.5484 35.3906 29.25 35.3906ZM31.5 31.6406H30.375V24.1406C30.375 23.8423 30.2565 23.5561 30.0455 23.3451C29.8345 23.1142 29.5484 23.0156 29.25 23.0156C28.9516 23.0156 28.6655 23.1342 28.4545 23.3451C28.2435 23.5561 28.125 23.8423 28.125 24.1406V31.6406H27C26.7016 31.6406 26.4155 31.7592 26.2045 31.9701C25.9935 32.1811 25.875 32.4673 25.875 32.7656C25.875 33.064 25.9935 33.3501 26.2045 33.5611C26.4155 33.7721 26.7016 33.8906 27 33.8906H31.5C31.7984 33.8906 32.0845 33.7721 32.2955 33.5611C32.5065 33.3501 32.625 33.064 32.625 32.7656C32.625 32.4673 32.5065 32.1811 32.2955 31.9701C32.0845 31.7592 31.7984 31.6406 31.5 31.6406ZM38.25 27.1406H37.125V24.1406C37.125 23.8423 37.0065 23.5561 36.7955 23.3451C36.5845 23.1342 36.2984 23.0156 36 23.0156C35.7016 23.0156 35.4155 23.1342 35.2045 23.3451C34.9935 23.5561 34.875 23.8423 34.875 24.1406V27.1406H33.75C33.4516 27.1406 33.1655 27.2592 32.9545 27.4701C32.7435 27.6811 32.625 27.9673 32.625 28.2656C32.625 28.564 32.7435 28.8501 32.9545 29.0611C33.1655 29.2721 33.4516 29.3906 33.75 29.3906H38.25C38.5484 29.3906 38.8345 29.2721 39.0455 29.0611C39.2565 28.8501 39.375 28.564 39.375 28.2656C39.375 27.9673 39.2565 27.6811 39.0455 27.4701C38.8345 27.2592 38.5484 27.1406 38.25 27.1406Z" fill="white"/>
<defs>
<filter id="filter0_d_7639_109748" x="0" y="0" width="72.7812" height="72.7812" filterUnits="userSpaceOnUse" color-interpolation-filters="sRGB">
<feFlood flood-opacity="0" result="BackgroundImageFix"/>
<feColorMatrix in="SourceAlpha" type="matrix" values="0 0 0 0 0 0 0 0 0 0 0 0 0 0 0 0 0 0 127 0" result="hardAlpha"/>
<feOffset dy="4"/>
<feGaussianBlur stdDeviation="7"/>
<feComposite in2="hardAlpha" operator="out"/>
<feColorMatrix type="matrix" values="0 0 0 0 0 0 0 0 0 0 0 0 0 0 0 0 0 0 0.07 0"/>
<feBlend mode="normal" in2="BackgroundImageFix" result="effect1_dropShadow_7639_109748"/>
<feBlend mode="normal" in="SourceGraphic" in2="effect1_dropShadow_7639_109748" result="shape"/>
</filter>
</defs>
</svg>
