<svg width="16" height="16" viewBox="0 0 16 16" fill="none" xmlns="http://www.w3.org/2000/svg">
<path fill-rule="evenodd" clip-rule="evenodd" d="M15.0402 10.2214L12.9182 1.02834C12.8399 0.687132 12.5361 0.445312 12.1857 0.445312H2.85455C2.50418 0.445312 2.20033 0.687114 2.12207 1.02834L3.61442e-05 10.2214H4.28003C4.42243 10.2214 4.55215 10.3018 4.61631 10.4294L5.16055 11.5179C5.224 11.6448 5.35442 11.7251 5.49683 11.7251H9.54347C9.68587 11.7251 9.81629 11.6448 9.87975 11.5179L10.424 10.4294C10.4881 10.3018 10.6179 10.2214 10.7603 10.2214H15.0402ZM0.752296 15.4856H14.288C14.7032 15.4856 15.0402 15.1486 15.0402 14.7333V11.7252H12.2647C12.1223 11.7252 11.9919 11.8055 11.9284 11.9331L11.3842 13.0216C11.32 13.1492 11.1903 13.2296 11.0479 13.2296H3.99235C3.84994 13.2296 3.72023 13.1492 3.65607 13.0216L3.11182 11.9331C3.04837 11.8055 2.91796 11.7252 2.77554 11.7252H0V14.7333C0 15.1486 0.337057 15.4856 0.752296 15.4856Z" fill="black"/>
</svg>
