<svg width="21" height="23" viewBox="0 0 21 23" fill="none" xmlns="http://www.w3.org/2000/svg">
<path d="M16.9102 15.4291L16.9102 9.55704C16.9102 8.93499 16.6802 8.35319 16.262 7.91423L16.9102 15.4291ZM16.9102 15.4291C16.9102 16.9561 15.7268 18.1891 14.2802 18.1891L6.72023 18.1891C5.2737 18.1891 4.09023 16.9561 4.09023 15.4291L4.09023 7.50906C4.09023 5.98204 5.2737 4.74906 6.72023 4.74906L12.3253 4.74906C12.9151 4.74906 13.4691 4.98836 13.8871 5.42625L16.2619 7.91416L16.9102 15.4291ZM13.1409 6.22141L13.1406 6.22111C12.9231 5.99512 12.6348 5.86906 12.3253 5.86906L6.72023 5.86906C5.8502 5.86906 5.15023 6.6092 5.15023 7.50906L5.15023 15.4291C5.15023 16.3289 5.8502 17.0691 6.72023 17.0691L14.2802 17.0691C15.1503 17.0691 15.8502 16.3289 15.8502 15.4291L15.8502 9.55704C15.8502 9.23737 15.7318 8.93569 15.5158 8.70939L13.1409 6.22141Z" fill="black" stroke="#F7F9FA" stroke-width="0.2"/>
<path d="M11.1305 12.0269L11.0305 12.0269L11.0305 12.1269L11.0305 13.8869C11.0305 14.1987 10.7871 14.4469 10.5005 14.4469C10.2139 14.4469 9.97055 14.1987 9.97055 13.8869L9.97055 12.1269L9.97055 12.0269L9.87055 12.0269L8.19055 12.0269C7.90394 12.0269 7.66055 11.7787 7.66055 11.4669C7.66055 11.155 7.90394 10.9069 8.19055 10.9069L9.87055 10.9069L9.97055 10.9069L9.97055 10.8069L9.97055 9.04687C9.97055 8.73502 10.2139 8.48687 10.5005 8.48687C10.7871 8.48687 11.0305 8.73502 11.0305 9.04687L11.0305 10.8069L11.0305 10.9069L11.1305 10.9069L12.8105 10.9069C13.0972 10.9069 13.3405 11.155 13.3405 11.4669C13.3405 11.7787 13.0972 12.0269 12.8105 12.0269L11.1305 12.0269Z" fill="black" stroke="#F7F9FA" stroke-width="0.2"/>
</svg>
