<svg width="14" height="15" viewBox="0 0 14 15" fill="none" xmlns="http://www.w3.org/2000/svg">
<path d="M12.9102 11.4291L12.9102 5.55704C12.9102 4.93499 12.6802 4.35319 12.262 3.91423L12.9102 11.4291ZM12.9102 11.4291C12.9102 12.9561 11.7268 14.1891 10.2802 14.1891L2.72023 14.1891C1.2737 14.1891 0.0902343 12.9561 0.0902343 11.4291L0.0902339 3.50906C0.0902338 1.98204 1.2737 0.749062 2.72023 0.749061L8.32535 0.749061C8.91507 0.749061 9.46908 0.988361 9.88706 1.42625L12.2619 3.91416L12.9102 11.4291ZM9.14089 2.22141L9.1406 2.22111C8.92306 1.99512 8.63483 1.86906 8.32535 1.86906L2.72023 1.86906C1.8502 1.86906 1.15023 2.6092 1.15023 3.50906L1.15023 11.4291C1.15023 12.3289 1.8502 13.0691 2.72023 13.0691L10.2802 13.0691C11.1503 13.0691 11.8502 12.3289 11.8502 11.4291L11.8502 5.55704C11.8502 5.23737 11.7318 4.93569 11.5158 4.70939L9.14089 2.22141Z" fill="black" stroke="#F7F9FA" stroke-width="0.2"/>
<path d="M7.13055 8.02687L7.03055 8.02687L7.03055 8.12687L7.03055 9.88687C7.03055 10.1987 6.78715 10.4469 6.50055 10.4469C6.21394 10.4469 5.97055 10.1987 5.97055 9.88687L5.97055 8.12687L5.97055 8.02687L5.87055 8.02687L4.19055 8.02687C3.90394 8.02688 3.66055 7.77873 3.66055 7.46687C3.66055 7.15502 3.90394 6.90687 4.19055 6.90687L5.87055 6.90687L5.97055 6.90687L5.97055 6.80687L5.97055 5.04687C5.97055 4.73502 6.21394 4.48687 6.50055 4.48687C6.78715 4.48687 7.03055 4.73502 7.03055 5.04687L7.03055 6.80687L7.03055 6.90687L7.13055 6.90687L8.81055 6.90687C9.09715 6.90687 9.34055 7.15502 9.34055 7.46687C9.34055 7.77873 9.09715 8.02687 8.81055 8.02687L7.13055 8.02687Z" fill="black" stroke="#F7F9FA" stroke-width="0.2"/>
</svg>
