<svg width="15" height="16" viewBox="0 0 15 16" fill="none" xmlns="http://www.w3.org/2000/svg">
<path d="M14.4924 10.5263C13.8821 9.47656 13.5579 7.96977 13.5579 6.17188C13.5579 4.60544 12.9357 3.10316 11.828 1.99553C10.7204 0.887889 9.21813 0.265625 7.65169 0.265625C6.08526 0.265625 4.58298 0.887889 3.47534 1.99553C2.36771 3.10316 1.74544 4.60544 1.74544 6.17188C1.74544 7.97047 1.42271 9.47656 0.812395 10.5263C0.687858 10.7404 0.621844 10.9836 0.62098 11.2313C0.620116 11.479 0.684433 11.7225 0.807473 11.9375C0.929735 12.1526 1.10719 12.3312 1.32152 12.4548C1.53585 12.5784 1.77928 12.6425 2.02669 12.6406H4.5706C4.64037 13.4096 4.99515 14.1247 5.56526 14.6454C6.13536 15.1661 6.87957 15.4548 7.65169 15.4548C8.42381 15.4548 9.16802 15.1661 9.73813 14.6454C10.3082 14.1247 10.663 13.4096 10.7328 12.6406H13.2767C13.5237 12.6422 13.7667 12.5778 13.9807 12.4542C14.1946 12.3306 14.3717 12.1523 14.4938 11.9375C14.6174 11.7228 14.6823 11.4794 14.682 11.2317C14.6818 10.984 14.6164 10.7408 14.4924 10.5263ZM7.65169 13.7656C7.32751 13.7657 7.01326 13.6537 6.76213 13.4487C6.51099 13.2437 6.3384 12.9583 6.27357 12.6406H9.02982C8.96498 12.9583 8.79239 13.2437 8.54126 13.4487C8.29013 13.6537 7.97588 13.7657 7.65169 13.7656ZM2.49497 10.9531C3.11724 9.6875 3.43294 8.08016 3.43294 6.17188C3.43294 5.05299 3.87742 3.97994 4.66859 3.18877C5.45975 2.3976 6.53281 1.95312 7.65169 1.95312C8.77057 1.95312 9.84363 2.3976 10.6348 3.18877C11.426 3.97994 11.8704 5.05299 11.8704 6.17188C11.8704 8.07945 12.1854 9.6875 12.8077 10.9531H2.49497Z" fill="black"/>
</svg>
