<svg width="14" height="15" viewBox="0 0 14 15" fill="none" xmlns="http://www.w3.org/2000/svg">
<path d="M7 1.59375C5.83186 1.59375 4.68994 1.94015 3.71867 2.58913C2.74739 3.23812 1.99037 4.16055 1.54334 5.23978C1.09631 6.319 0.979346 7.50655 1.20724 8.65225C1.43513 9.79795 1.99765 10.8503 2.82365 11.6763C3.64966 12.5024 4.70205 13.0649 5.84775 13.2928C6.99345 13.5207 8.181 13.4037 9.26023 12.9567C10.3395 12.5096 11.2619 11.7526 11.9109 10.7813C12.5599 9.81006 12.9063 8.66815 12.9063 7.5C12.9045 5.9341 12.2817 4.43283 11.1744 3.32557C10.0672 2.21831 8.5659 1.59549 7 1.59375ZM7 12.0937C6.09144 12.0937 5.20329 11.8243 4.44785 11.3196C3.69241 10.8148 3.10362 10.0973 2.75593 9.25795C2.40824 8.41855 2.31727 7.4949 2.49452 6.6038C2.67177 5.7127 3.10928 4.89418 3.75173 4.25173C4.39418 3.60928 5.21271 3.17177 6.10381 2.99452C6.99491 2.81727 7.91856 2.90824 8.75795 3.25593C9.59735 3.60362 10.3148 4.19241 10.8196 4.94785C11.3243 5.70329 11.5938 6.59144 11.5938 7.5C11.5924 8.71794 11.108 9.88562 10.2468 10.7468C9.38562 11.608 8.21794 12.0924 7 12.0937ZM6.34375 5.75V9.25C6.34375 9.42405 6.27461 9.59097 6.15154 9.71404C6.02847 9.83711 5.86155 9.90625 5.6875 9.90625C5.51345 9.90625 5.34653 9.83711 5.22346 9.71404C5.10039 9.59097 5.03125 9.42405 5.03125 9.25V5.75C5.03125 5.57595 5.10039 5.40903 5.22346 5.28596C5.34653 5.16289 5.51345 5.09375 5.6875 5.09375C5.86155 5.09375 6.02847 5.16289 6.15154 5.28596C6.27461 5.40903 6.34375 5.57595 6.34375 5.75ZM8.96875 5.75V9.25C8.96875 9.42405 8.89961 9.59097 8.77654 9.71404C8.65347 9.83711 8.48655 9.90625 8.3125 9.90625C8.13845 9.90625 7.97153 9.83711 7.84846 9.71404C7.72539 9.59097 7.65625 9.42405 7.65625 9.25V5.75C7.65625 5.57595 7.72539 5.40903 7.84846 5.28596C7.97153 5.16289 8.13845 5.09375 8.3125 5.09375C8.48655 5.09375 8.65347 5.16289 8.77654 5.28596C8.89961 5.40903 8.96875 5.57595 8.96875 5.75Z" fill="black"/>
</svg>
