<svg width="17" height="17" viewBox="0 0 17 17" fill="none" xmlns="http://www.w3.org/2000/svg">
<path d="M8.01563 1.89844C6.73005 1.89844 5.47334 2.27966 4.40442 2.99389C3.3355 3.70811 2.50238 4.72328 2.01041 5.911C1.51844 7.09871 1.38972 8.40565 1.64052 9.66652C1.89133 10.9274 2.51039 12.0856 3.41943 12.9946C4.32848 13.9037 5.48666 14.5227 6.74754 14.7735C8.00842 15.0243 9.31535 14.8956 10.5031 14.4037C11.6908 13.9117 12.706 13.0786 13.4202 12.0096C14.1344 10.9407 14.5156 9.68402 14.5156 8.39844C14.5138 6.67509 13.8284 5.02285 12.6098 3.80425C11.3912 2.58566 9.73898 1.90026 8.01563 1.89844ZM7.51563 5.39844C7.51563 5.26583 7.56831 5.13865 7.66207 5.04488C7.75584 4.95112 7.88302 4.89844 8.01563 4.89844C8.14824 4.89844 8.27541 4.95112 8.36918 5.04488C8.46295 5.13865 8.51563 5.26583 8.51563 5.39844V8.89844C8.51563 9.03105 8.46295 9.15822 8.36918 9.25199C8.27541 9.34576 8.14824 9.39844 8.01563 9.39844C7.88302 9.39844 7.75584 9.34576 7.66207 9.25199C7.56831 9.15822 7.51563 9.03105 7.51563 8.89844V5.39844ZM8.01563 11.8984C7.86729 11.8984 7.72229 11.8545 7.59895 11.772C7.47561 11.6896 7.37948 11.5725 7.32272 11.4354C7.26595 11.2984 7.2511 11.1476 7.28004 11.0021C7.30898 10.8566 7.38041 10.723 7.4853 10.6181C7.59019 10.5132 7.72382 10.4418 7.86931 10.4128C8.0148 10.3839 8.1656 10.3988 8.30264 10.4555C8.43968 10.5123 8.55682 10.6084 8.63923 10.7318C8.72164 10.8551 8.76563 11.0001 8.76563 11.1484C8.76563 11.3474 8.68661 11.5381 8.54596 11.6788C8.40531 11.8194 8.21454 11.8984 8.01563 11.8984Z" fill="#104CCB"/>
</svg>
