<svg width="22" height="22" viewBox="0 0 22 22" fill="none" xmlns="http://www.w3.org/2000/svg">
<path d="M16.9992 12.158C17.0357 11.8974 17.0539 11.628 17.0539 11.3413C17.0539 11.0632 17.0357 10.7852 16.9901 10.5245L18.838 9.1517C19.0018 9.03005 19.0473 8.79545 18.9472 8.62168L17.1995 5.73698C17.0903 5.54583 16.8627 5.48501 16.6625 5.54583L14.4869 6.37996C14.0318 6.04978 13.5494 5.77174 13.0123 5.56321L12.6846 3.35624C12.6482 3.14771 12.4662 3 12.2477 3L8.7523 3C8.53384 3 8.36089 3.14771 8.32448 3.35624L7.99679 5.56321C7.45973 5.77174 6.96819 6.05847 6.52217 6.37996L4.34665 5.54583C4.14639 5.47632 3.91883 5.54583 3.8096 5.73698L2.071 8.62168C1.96177 8.80414 1.99818 9.03005 2.18023 9.1517L4.02806 10.5245C3.98254 10.7852 3.94613 11.0719 3.94613 11.3413C3.94613 11.6106 3.96434 11.8974 4.00985 12.158L2.16203 13.5309C1.99818 13.6525 1.95267 13.8871 2.0528 14.0609L3.80049 16.9456C3.90972 17.1367 4.13729 17.1976 4.33755 17.1367L6.51306 16.3026C6.96819 16.6328 7.45063 16.9108 7.98768 17.1194L8.31538 19.3263C8.36089 19.5349 8.53384 19.6826 8.7523 19.6826L12.2477 19.6826C12.4662 19.6826 12.6482 19.5349 12.6755 19.3263L13.0032 17.1194C13.5403 16.9108 14.0318 16.6328 14.4778 16.3026L16.6534 17.1367C16.8536 17.2062 17.0812 17.1367 17.1904 16.9456L18.9381 14.0609C19.0473 13.8697 19.0018 13.6525 18.8289 13.5309L16.9992 12.158ZM10.5 14.4693C8.69769 14.4693 7.22307 13.0617 7.22307 11.3413C7.22307 9.62089 8.69769 8.2133 10.5 8.2133C12.3023 8.2133 13.7769 9.62089 13.7769 11.3413C13.7769 13.0617 12.3023 14.4693 10.5 14.4693Z" stroke="black"/>
</svg>
