<svg width="13" height="13" viewBox="0 0 13 13" fill="none" xmlns="http://www.w3.org/2000/svg">
<path d="M10.6139 7.04915C10.6369 6.8763 10.6484 6.6977 10.6484 6.50757C10.6484 6.3232 10.6369 6.13883 10.6081 5.96599L11.7777 5.05568C11.8814 4.97502 11.9102 4.81946 11.8468 4.70423L10.7406 2.79142C10.6715 2.66467 10.5274 2.62434 10.4007 2.66467L9.02369 3.21777C8.73562 2.99884 8.43026 2.81447 8.09034 2.67619L7.88292 1.21278C7.85988 1.07451 7.74465 0.976562 7.60637 0.976562H5.39397C5.2557 0.976562 5.14623 1.07451 5.12318 1.21278L4.91577 2.67619C4.57584 2.81447 4.26472 3.0046 3.98241 3.21777L2.60542 2.66467C2.47867 2.61858 2.33463 2.66467 2.2655 2.79142L1.16506 4.70423C1.09592 4.82522 1.11897 4.97502 1.23419 5.05568L2.40377 5.96599C2.37496 6.13883 2.35192 6.32896 2.35192 6.50757C2.35192 6.68617 2.36344 6.8763 2.39225 7.04915L1.22267 7.95946C1.11897 8.04012 1.09016 8.19568 1.15353 8.31091L2.25973 10.2237C2.32887 10.3505 2.47291 10.3908 2.59966 10.3505L3.97665 9.79736C4.26472 10.0163 4.57008 10.2007 4.91001 10.3389L5.11742 11.8024C5.14623 11.9406 5.2557 12.0386 5.39397 12.0386H7.60637C7.74465 12.0386 7.85988 11.9406 7.87716 11.8024L8.08457 10.3389C8.4245 10.2007 8.73562 10.0163 9.01793 9.79736L10.3949 10.3505C10.5217 10.3966 10.6657 10.3505 10.7348 10.2237L11.8411 8.31091C11.9102 8.18415 11.8814 8.04012 11.7719 7.95946L10.6139 7.04915ZM6.50017 8.5817C5.3594 8.5817 4.42605 7.64834 4.42605 6.50757C4.42605 5.3668 5.3594 4.43344 6.50017 4.43344C7.64094 4.43344 8.5743 5.3668 8.5743 6.50757C8.5743 7.64834 7.64094 8.5817 6.50017 8.5817Z" stroke="black"/>
</svg>
