<svg width="22" height="22" viewBox="0 0 22 22" fill="none" xmlns="http://www.w3.org/2000/svg">
<path d="M14.9458 11.0726C14.97 10.8997 14.982 10.7211 14.982 10.531C14.982 10.3466 14.97 10.1623 14.9398 9.98943L16.1651 9.07912C16.2737 8.99846 16.3039 8.8429 16.2375 8.72767L15.0786 6.81486C15.0062 6.68811 14.8553 6.64778 14.7225 6.68811L13.2799 7.24121C12.9781 7.02227 12.6582 6.83791 12.3021 6.69963L12.0848 5.23622C12.0607 5.09794 11.94 5 11.7951 5L9.47737 5C9.33251 5 9.21783 5.09794 9.19369 5.23622L8.9764 6.69963C8.62028 6.83791 8.29435 7.02804 7.99859 7.24121L6.55603 6.68811C6.42325 6.64202 6.27235 6.68811 6.19992 6.81486L5.04708 8.72767C4.97465 8.84866 4.99879 8.99846 5.11951 9.07912L6.34478 9.98943C6.3146 10.1623 6.29046 10.3524 6.29046 10.531C6.29046 10.7096 6.30253 10.8997 6.33271 11.0726L5.10744 11.9829C4.99879 12.0636 4.96861 12.2191 5.03501 12.3343L6.19388 14.2472C6.26631 14.3739 6.41721 14.4142 6.55 14.3739L7.99256 13.8208C8.29435 14.0397 8.61425 14.2241 8.97036 14.3624L9.18765 15.8258C9.21783 15.9641 9.33251 16.062 9.47737 16.062L11.7951 16.062C11.94 16.062 12.0607 15.9641 12.0788 15.8258L12.2961 14.3624C12.6522 14.2241 12.9781 14.0397 13.2739 13.8208L14.7165 14.3739C14.8492 14.42 15.0001 14.3739 15.0726 14.2472L16.2315 12.3343C16.3039 12.2076 16.2737 12.0636 16.159 11.9829L14.9458 11.0726ZM10.6362 12.6051C9.44116 12.6051 8.46335 11.6718 8.46335 10.531C8.46335 9.39024 9.44116 8.45688 10.6362 8.45688C11.8313 8.45688 12.8091 9.39024 12.8091 10.531C12.8091 11.6718 11.8313 12.6051 10.6362 12.6051Z" stroke="black"/>
</svg>
