<svg width="24" height="24" viewBox="0 0 24 24" fill="none" xmlns="http://www.w3.org/2000/svg">
<path d="M22.125 12C22.125 14.6853 21.0583 17.2607 19.1595 19.1595C17.2607 21.0583 14.6853 22.125 12 22.125C9.31468 22.125 6.73935 21.0583 4.84054 19.1595C2.94174 17.2607 1.875 14.6853 1.875 12C1.875 8.01375 4.19344 4.37437 7.78125 2.72812C7.91606 2.6624 8.06266 2.62429 8.21242 2.61605C8.36217 2.60781 8.51206 2.62959 8.65328 2.68012C8.79449 2.73065 8.92417 2.80891 9.0347 2.91029C9.14523 3.01167 9.23437 3.13413 9.29688 3.27047C9.35939 3.4068 9.39401 3.55426 9.3987 3.70417C9.40339 3.85408 9.37806 4.00341 9.32419 4.14339C9.27033 4.28336 9.18902 4.41116 9.08504 4.51925C8.98107 4.62734 8.85653 4.71355 8.71875 4.77281C5.92875 6.05344 4.125 8.89031 4.125 12C4.125 14.0886 4.95468 16.0916 6.43153 17.5685C7.90838 19.0453 9.91142 19.875 12 19.875C14.0886 19.875 16.0916 19.0453 17.5685 17.5685C19.0453 16.0916 19.875 14.0886 19.875 12C19.875 8.89031 18.0713 6.05344 15.2812 4.77281C15.1435 4.71355 15.0189 4.62734 14.915 4.51925C14.811 4.41116 14.7297 4.28336 14.6758 4.14339C14.6219 4.00341 14.5966 3.85408 14.6013 3.70417C14.606 3.55426 14.6406 3.4068 14.7031 3.27047C14.7656 3.13413 14.8548 3.01167 14.9653 2.91029C15.0758 2.80891 15.2055 2.73065 15.3467 2.68012C15.4879 2.62959 15.6378 2.60781 15.7876 2.61605C15.9373 2.62429 16.0839 2.6624 16.2188 2.72812C19.8066 4.37437 22.125 8.01375 22.125 12Z" fill="black"/>
</svg>
