<svg width="30" height="30" viewBox="0 0 30 30" fill="none" xmlns="http://www.w3.org/2000/svg">
<path fill-rule="evenodd" clip-rule="evenodd" d="M26.6912 25.8743C27.1304 25.6233 27.495 25.26 27.7475 24.8216C27.9943 24.4 28.1246 23.9205 28.125 23.432C28.1254 22.9436 27.9959 22.4638 27.7499 22.0419L17.5018 4.24461C17.2458 3.80858 16.8802 3.44705 16.4413 3.19585C16.0024 2.94465 15.5056 2.8125 14.9999 2.8125C14.4942 2.8125 13.9973 2.94465 13.5585 3.19585C13.1196 3.44705 12.754 3.80858 12.4979 4.24461L2.25223 22.0419C2.00583 22.4636 1.87598 22.9433 1.87598 23.4317C1.87598 23.9202 2.00583 24.3998 2.25223 24.8216C2.50475 25.26 2.86933 25.6233 3.30858 25.8743C3.74783 26.1254 4.24595 26.255 4.75184 26.2501H25.2479C25.7538 26.255 26.2519 26.1254 26.6912 25.8743ZM15.7817 19.7682C15.5505 19.6137 15.2786 19.5312 15.0004 19.5312C14.6275 19.5312 14.2698 19.6794 14.0061 19.9431C13.7424 20.2069 13.5942 20.5645 13.5942 20.9375C13.5942 21.2156 13.6767 21.4875 13.8312 21.7188C13.9857 21.95 14.2053 22.1303 14.4623 22.2367C14.7193 22.3431 15.002 22.371 15.2748 22.3167C15.5476 22.2625 15.7981 22.1285 15.9948 21.9319C16.1915 21.7352 16.3254 21.4846 16.3797 21.2118C16.4339 20.9391 16.4061 20.6563 16.2996 20.3994C16.1932 20.1424 16.013 19.9228 15.7817 19.7682ZM14.0629 10.1562V16.7188C14.0629 16.9674 14.1617 17.2058 14.3375 17.3817C14.5133 17.5575 14.7518 17.6562 15.0004 17.6562C15.2491 17.6562 15.4875 17.5575 15.6634 17.3817C15.8392 17.2058 15.9379 16.9674 15.9379 16.7188V10.1562C15.9379 9.90761 15.8392 9.66915 15.6634 9.49334C15.4875 9.31752 15.2491 9.21875 15.0004 9.21875C14.7518 9.21875 14.5133 9.31752 14.3375 9.49334C14.1617 9.66915 14.0629 9.90761 14.0629 10.1562Z" fill="#FFD82D"/>
</svg>
