<svg width="64" height="65" viewBox="0 0 64 65" fill="none" xmlns="http://www.w3.org/2000/svg">
<rect x="7.44629" y="19.8359" width="33.4649" height="6.66845" fill="#BFD2D9"/>
<rect x="7.44629" y="34.2031" width="33.4649" height="6.66845" fill="#BFD2D9"/>
<rect x="7.44629" y="48.5703" width="33.4649" height="6.66845" fill="#BFD2D9"/>
<path d="M42.2372 16.0312H7.05724C5.91079 16.0312 4.96484 16.9772 4.96484 18.1236V27.2428C4.96484 28.3892 5.91079 29.3352 7.05724 29.3352H42.2372C43.3836 29.3352 44.3295 28.3892 44.3295 27.2428V18.1236C44.3295 16.9772 43.3836 16.0312 42.2372 16.0312ZM11.8418 24.5529C10.7946 24.5529 9.94789 23.7062 9.94789 22.659C9.94789 21.6118 10.7946 20.7652 11.8418 20.7652C12.889 20.7652 13.7357 21.6118 13.7357 22.659C13.7357 23.7043 12.887 24.5529 11.8418 24.5529ZM18.5178 24.5529C17.4706 24.5529 16.6239 23.7062 16.6239 22.659C16.6239 21.6118 17.4706 20.7652 18.5178 20.7652C19.565 20.7652 20.4117 21.6118 20.4117 22.659C20.4117 23.7043 19.565 24.5529 18.5178 24.5529ZM39.2958 23.3559C39.2958 23.8036 38.9474 24.1033 38.5484 24.1033H24.7967C24.3977 24.1033 24.0493 23.7549 24.0493 23.3559V22.0109C24.0493 21.5632 24.3977 21.2635 24.7967 21.2635H38.5503C38.9494 21.2635 39.2978 21.6119 39.2978 22.0109L39.2958 23.3559Z" fill="white"/>
<path d="M42.2372 31.0156H7.05724C5.91079 31.0156 4.96484 31.9616 4.96484 33.108V42.2271C4.96484 43.3736 5.91079 44.3195 7.05724 44.3195H42.2372C43.3836 44.3195 44.3295 43.3736 44.3295 42.2271V33.1569C44.3295 31.9618 43.3836 31.0156 42.2372 31.0156ZM11.8418 39.5856C10.7946 39.5856 9.94789 38.7389 9.94789 37.6917C9.94789 36.6445 10.7946 35.7979 11.8418 35.7979C12.889 35.7979 13.7357 36.6445 13.7357 37.6917C13.7357 38.7389 12.887 39.5856 11.8418 39.5856ZM18.5178 39.5856C17.4706 39.5856 16.6239 38.7389 16.6239 37.6917C16.6239 36.6445 17.4706 35.7979 18.5178 35.7979C19.565 35.7979 20.4117 36.6445 20.4117 37.6917C20.4117 38.7389 19.565 39.5856 18.5178 39.5856ZM39.2958 38.3399C39.2958 38.7876 38.9474 39.0873 38.5484 39.0873H24.7967C24.3977 39.0873 24.0493 38.7389 24.0493 38.3399V36.9949C24.0493 36.5473 24.3977 36.2475 24.7967 36.2475H38.5503C38.9494 36.2475 39.2978 36.5959 39.2978 36.9949L39.2958 38.3399Z" fill="white"/>
<path d="M42.2372 46H7.05724C5.91079 46 4.96484 46.9459 4.96484 48.0924V57.2115C4.96484 58.358 5.91079 59.3039 7.05724 59.3039H42.2372C43.3836 59.3039 44.3295 58.358 44.3295 57.2115V48.0924C44.3295 46.9459 43.3836 46 42.2372 46ZM11.8418 54.5197C10.7946 54.5197 9.94789 53.673 9.94789 52.6258C9.94789 51.5786 10.7946 50.7319 11.8418 50.7319C12.889 50.7319 13.7357 51.5786 13.7357 52.6258C13.7357 53.673 12.887 54.5197 11.8418 54.5197ZM18.5178 54.5197C17.4706 54.5197 16.6239 53.673 16.6239 52.6258C16.6239 51.5786 17.4706 50.7319 18.5178 50.7319C19.565 50.7319 20.4117 51.5786 20.4117 52.6258C20.4117 53.673 19.565 54.5197 18.5178 54.5197ZM39.2958 53.3246C39.2958 53.7723 38.9474 54.072 38.5484 54.072H24.7967C24.3977 54.072 24.0493 53.7236 24.0493 53.3246V51.9796C24.0493 51.5319 24.3977 51.2322 24.7967 51.2322H38.5503C38.9494 51.2322 39.2978 51.5806 39.2978 51.9796L39.2958 53.3246Z" fill="white"/>
<rect x="0.647461" y="11.7812" width="48" height="51.7812" rx="2.5" stroke="black" stroke-dasharray="2 2"/>
<circle cx="49.0328" cy="15.1667" r="13" transform="rotate(1.9543 49.0328 15.1667)" fill="#00811F" stroke="#F7F9FA" stroke-width="3"/>
<path d="M49.9969 17.1748H48.281L47.8388 13.6899V8.64844H50.4568V13.6899L49.9969 17.1748ZM47.6973 18.5545H50.5983V21.3141H47.6973V18.5545Z" fill="white"/>
</svg>
