<svg width="14" height="15" viewBox="0 0 14 15" fill="none" xmlns="http://www.w3.org/2000/svg">
<path d="M13.1392 10.6775L8.35678 2.37212C8.21826 2.13522 8.02013 1.93872 7.78209 1.80216C7.54405 1.6656 7.27441 1.59375 6.99999 1.59375C6.72556 1.59375 6.45592 1.6656 6.21788 1.80216C5.97984 1.93872 5.78171 2.13522 5.64319 2.37212L0.860767 10.6775C0.726356 10.9074 0.655518 11.1689 0.655518 11.4352C0.655518 11.7015 0.726356 11.963 0.860767 12.1929C0.997753 12.431 1.19561 12.6283 1.43405 12.7647C1.67248 12.9011 1.9429 12.9716 2.21756 12.9689H11.7824C12.0569 12.9714 12.3271 12.9008 12.5653 12.7644C12.8035 12.6281 13.0012 12.4308 13.1381 12.1929C13.2727 11.9631 13.3437 11.7017 13.3439 11.4354C13.3441 11.1691 13.2734 10.9075 13.1392 10.6775ZM12.0017 11.5361C11.9795 11.574 11.9474 11.6052 11.9089 11.6264C11.8704 11.6475 11.8269 11.6579 11.783 11.6564H2.21756C2.17365 11.6579 2.13013 11.6475 2.09163 11.6264C2.05312 11.6052 2.02106 11.574 1.99881 11.5361C1.97995 11.5054 1.96996 11.4701 1.96996 11.4341C1.96996 11.3981 1.97995 11.3628 1.99881 11.3321L6.78124 3.02673C6.80492 2.99028 6.83733 2.96032 6.87554 2.93958C6.91374 2.91885 6.95652 2.90798 6.99999 2.90798C7.04345 2.90798 7.08623 2.91885 7.12444 2.93958C7.16264 2.96032 7.19506 2.99028 7.21874 3.02673L12.0006 11.3321C12.0196 11.3627 12.0298 11.3979 12.03 11.434C12.0302 11.47 12.0204 11.5053 12.0017 11.5361ZM6.34374 7.93767V6.18767C6.34374 6.01362 6.41288 5.8467 6.53595 5.72363C6.65902 5.60056 6.82594 5.53142 6.99999 5.53142C7.17403 5.53142 7.34095 5.60056 7.46402 5.72363C7.5871 5.8467 7.65624 6.01362 7.65624 6.18767V7.93767C7.65624 8.11172 7.5871 8.27863 7.46402 8.40171C7.34095 8.52478 7.17403 8.59392 6.99999 8.59392C6.82594 8.59392 6.65902 8.52478 6.53595 8.40171C6.41288 8.27863 6.34374 8.11172 6.34374 7.93767ZM7.87499 10.1252C7.87499 10.2982 7.82367 10.4674 7.72752 10.6113C7.63138 10.7552 7.49472 10.8673 7.33483 10.9336C7.17495 10.9998 6.99902 11.0171 6.82928 10.9834C6.65955 10.9496 6.50364 10.8663 6.38127 10.7439C6.2589 10.6215 6.17556 10.4656 6.1418 10.2959C6.10804 10.1261 6.12536 9.9502 6.19159 9.79032C6.25782 9.63043 6.36997 9.49378 6.51386 9.39763C6.65775 9.30148 6.82693 9.25017 6.99999 9.25017C7.23205 9.25017 7.45461 9.34235 7.6187 9.50645C7.7828 9.67054 7.87499 9.8931 7.87499 10.1252Z" fill="black"/>
</svg>
