<svg width="66" height="53" viewBox="0 0 66 53" fill="none" xmlns="http://www.w3.org/2000/svg">
<path fill-rule="evenodd" clip-rule="evenodd" d="M8.75752 45.4587V40.9434L4.0534 45.6667L4.05289 45.6671C4.00725 45.4646 3.98741 45.2563 3.98939 45.0479L3.98939 19.6793C3.98741 18.8975 4.29501 18.1473 4.84665 17.5937C5.39636 17.0401 6.14444 16.7285 6.9263 16.7266L44.995 16.7266C45.7768 16.7285 46.525 17.0401 47.0746 17.5937C47.6263 18.1474 47.9338 18.8975 47.9319 19.6793V45.0479C47.9338 45.2563 47.914 45.4647 47.8684 45.6671L44.7823 42.5658V45.6777H43.3815L45.6141 47.9212C45.4136 47.9808 45.2033 48.0066 44.9949 48.0006L6.92625 48.0006C6.71789 48.0066 6.50755 47.9808 6.3071 47.9212L8.75752 45.4587Z" fill="#BFD2D9"/>
<rect x="0.647461" y="13.1562" width="51.125" height="38.4004" rx="2.5" stroke="black" stroke-dasharray="2 2"/>
<path d="M25.6905 36.2856L6.3072 16.8068C6.50762 16.7472 6.71797 16.7214 6.92636 16.7274H44.995C45.2034 16.7214 45.4137 16.7472 45.6142 16.8068L26.2308 36.2856C26.0403 36.492 25.8816 36.4761 25.6911 36.2856H25.6905ZM47.8679 19.0613L28.4845 38.5239C27.8198 39.2025 26.9109 39.5855 25.9604 39.5875C25.0138 39.5835 24.107 39.2085 23.4362 38.5398L4.05289 19.0609C4.00725 19.2633 3.98741 19.4717 3.98939 19.6801V45.0487C3.98741 45.8305 4.29499 46.5806 4.84665 47.1343C5.3963 47.6879 6.14444 47.9995 6.9263 48.0014H44.995C45.7768 47.9995 46.5249 47.6879 47.0746 47.1343C47.6262 46.5807 47.9338 45.8305 47.9319 45.0487V19.6801C47.9338 19.4717 47.914 19.2634 47.8684 19.0609L47.8679 19.0613Z" fill="white"/>
<circle cx="51.1578" cy="14.9167" r="13" transform="rotate(1.9543 51.1578 14.9167)" fill="#00811F" stroke="#F7F9FA" stroke-width="3"/>
<path d="M52.1219 16.9248H50.406L49.9638 13.4399V8.39844H52.5818V13.4399L52.1219 16.9248ZM49.8223 18.3045H52.7233V21.0641H49.8223V18.3045Z" fill="white"/>
</svg>
