<svg width="14" height="14" viewBox="0 0 14 14" fill="none" xmlns="http://www.w3.org/2000/svg">
<g clip-path="url(#clip0_7189_162528)">
<path d="M11.8125 2.625H2.18749C1.95542 2.625 1.73286 2.71719 1.56877 2.88128C1.40467 3.04538 1.31249 3.26794 1.31249 3.5V12.25C1.31148 12.4169 1.35868 12.5805 1.44842 12.7211C1.53816 12.8618 1.66661 12.9736 1.81834 13.043C1.93397 13.0968 2.05994 13.1248 2.18749 13.125C2.39289 13.1245 2.59149 13.0513 2.74803 12.9183L2.75295 12.9145L4.53905 11.375H11.8125C12.0445 11.375 12.2671 11.2828 12.4312 11.1187C12.5953 10.9546 12.6875 10.7321 12.6875 10.5V3.5C12.6875 3.26794 12.5953 3.04538 12.4312 2.88128C12.2671 2.71719 12.0445 2.625 11.8125 2.625ZM8.74999 8.3125H5.24999C5.13395 8.3125 5.02267 8.26641 4.94063 8.18436C4.85858 8.10231 4.81249 7.99103 4.81249 7.875C4.81249 7.75897 4.85858 7.64769 4.94063 7.56564C5.02267 7.48359 5.13395 7.4375 5.24999 7.4375H8.74999C8.86602 7.4375 8.9773 7.48359 9.05934 7.56564C9.14139 7.64769 9.18749 7.75897 9.18749 7.875C9.18749 7.99103 9.14139 8.10231 9.05934 8.18436C8.9773 8.26641 8.86602 8.3125 8.74999 8.3125ZM8.74999 6.5625H5.24999C5.13395 6.5625 5.02267 6.51641 4.94063 6.43436C4.85858 6.35231 4.81249 6.24103 4.81249 6.125C4.81249 6.00897 4.85858 5.89769 4.94063 5.81564C5.02267 5.73359 5.13395 5.6875 5.24999 5.6875H8.74999C8.86602 5.6875 8.9773 5.73359 9.05934 5.81564C9.14139 5.89769 9.18749 6.00897 9.18749 6.125C9.18749 6.24103 9.14139 6.35231 9.05934 6.43436C8.9773 6.51641 8.86602 6.5625 8.74999 6.5625Z" fill="#00811F"/>
</g>
<defs>
<clipPath id="clip0_7189_162528">
<rect width="14" height="14" fill="white"/>
</clipPath>
</defs>
</svg>
