<svg width="14" height="14" viewBox="0 0 14 14" fill="none" xmlns="http://www.w3.org/2000/svg">
<path d="M11.375 1.75H2.625C2.39294 1.75 2.17038 1.84219 2.00628 2.00628C1.84219 2.17038 1.75 2.39294 1.75 2.625V11.375C1.75 11.6071 1.84219 11.8296 2.00628 11.9937C2.17038 12.1578 2.39294 12.25 2.625 12.25H11.375C11.6071 12.25 11.8296 12.1578 11.9937 11.9937C12.1578 11.8296 12.25 11.6071 12.25 11.375V2.625C12.25 2.39294 12.1578 2.17038 11.9937 2.00628C11.8296 1.84219 11.6071 1.75 11.375 1.75Z" fill="#00811F"/>
<path d="M7.00043 4.44922L7.00043 9.55461" stroke="white" stroke-width="0.9" stroke-linecap="round"/>
<path d="M9.55362 7L4.44823 7" stroke="white" stroke-width="0.9" stroke-linecap="round"/>
</svg>
