<svg width="14" height="15" viewBox="0 0 14 15" fill="none" xmlns="http://www.w3.org/2000/svg">
<path d="M12.431 5.04383L9.61242 2.22523C9.44784 2.06164 9.22542 1.96949 8.99336 1.96875H5.00664C4.77458 1.96949 4.55216 2.06164 4.38758 2.22523L1.56898 5.04383C1.40539 5.20841 1.31324 5.43083 1.3125 5.66289V9.64961C1.31324 9.88167 1.40539 10.1041 1.56898 10.2687L4.38758 13.0873C4.55216 13.2509 4.77458 13.343 5.00664 13.3438H8.99336C9.22542 13.343 9.44784 13.2509 9.61242 13.0873L12.431 10.2687C12.5946 10.1041 12.6868 9.88167 12.6875 9.64961V5.66289C12.6868 5.43083 12.5946 5.20841 12.431 5.04383Z" fill="#00811F"/>
<path d="M7.37426 8.67886H6.3865V8.60941C6.3865 8.09238 6.44052 7.77598 7.05015 7.20493C7.35111 6.92712 7.5749 6.71877 7.5749 6.36379C7.5749 6.03196 7.33568 5.79274 6.91896 5.79274C6.5717 5.79274 6.27074 5.94708 5.9312 6.28662L5.32156 5.53036C5.76143 5.05963 6.34791 4.82812 7.00385 4.82812C7.99161 4.82812 8.67842 5.40689 8.67842 6.30205C8.67842 6.87311 8.43919 7.25123 7.83728 7.80685C7.42056 8.18498 7.37426 8.34703 7.37426 8.60941V8.67886ZM6.25531 9.28078H7.52088V10.4846H6.25531V9.28078Z" fill="white"/>
</svg>
