<svg width="15" height="15" viewBox="0 0 15 15" fill="none" xmlns="http://www.w3.org/2000/svg">
<path d="M12.1255 3.45312H2.50049C2.26842 3.45313 2.04586 3.54531 1.88177 3.70941C1.71768 3.8735 1.62549 4.09606 1.62549 4.32812V13.0781C1.62448 13.245 1.67168 13.4086 1.76142 13.5492C1.85116 13.6899 1.97962 13.8017 2.13135 13.8711C2.24697 13.9249 2.37294 13.9529 2.50049 13.9531C2.7059 13.9526 2.90449 13.8794 3.06104 13.7464L3.06596 13.7426L4.85205 12.2031H12.1255C12.3576 12.2031 12.5801 12.1109 12.7442 11.9468C12.9083 11.7827 13.0005 11.5602 13.0005 11.3281V4.32812C13.0005 4.09606 12.9083 3.8735 12.7442 3.70941C12.5801 3.54531 12.3576 3.45313 12.1255 3.45312ZM9.06299 9.14062H5.56299C5.44696 9.14062 5.33568 9.09453 5.25363 9.01248C5.17158 8.93044 5.12549 8.81916 5.12549 8.70312C5.12549 8.58709 5.17158 8.47581 5.25363 8.39377C5.33568 8.31172 5.44696 8.26562 5.56299 8.26562H9.06299C9.17902 8.26562 9.2903 8.31172 9.37235 8.39377C9.4544 8.47581 9.50049 8.58709 9.50049 8.70312C9.50049 8.81916 9.4544 8.93044 9.37235 9.01248C9.2903 9.09453 9.17902 9.14062 9.06299 9.14062ZM9.06299 7.39062H5.56299C5.44696 7.39062 5.33568 7.34453 5.25363 7.26248C5.17158 7.18044 5.12549 7.06916 5.12549 6.95312C5.12549 6.83709 5.17158 6.72581 5.25363 6.64377C5.33568 6.56172 5.44696 6.51562 5.56299 6.51562H9.06299C9.17902 6.51562 9.2903 6.56172 9.37235 6.64377C9.4544 6.72581 9.50049 6.83709 9.50049 6.95312C9.50049 7.06916 9.4544 7.18044 9.37235 7.26248C9.2903 7.34453 9.17902 7.39062 9.06299 7.39062Z" fill="#00811F"/>
</svg>
