<svg width="14" height="14" viewBox="0 0 14 14" fill="none" xmlns="http://www.w3.org/2000/svg">
<path d="M11.0625 1.79688C11.278 1.79688 11.4843 1.88278 11.6367 2.03516C11.7891 2.18753 11.875 2.39389 11.875 2.60938V10.7344C11.875 10.9499 11.7891 11.1562 11.6367 11.3086C11.4843 11.461 11.278 11.5469 11.0625 11.5469H2.9375C2.72201 11.5469 2.51565 11.461 2.36328 11.3086C2.21091 11.1562 2.125 10.9499 2.125 10.7344V2.60938C2.125 2.39389 2.21091 2.18753 2.36328 2.03516C2.51565 1.88278 2.72201 1.79688 2.9375 1.79688H11.0625ZM7 3.98145C6.91442 3.98145 6.83203 4.01472 6.77148 4.0752C6.71097 4.13571 6.67681 4.21814 6.67676 4.30371V9.04004C6.67677 9.12566 6.71094 9.20801 6.77148 9.26855C6.83204 9.32907 6.91439 9.36328 7 9.36328C7.08562 9.36326 7.16797 9.3291 7.22852 9.26855C7.28906 9.20801 7.32323 9.12566 7.32324 9.04004V4.30371C7.32319 4.21814 7.28903 4.13571 7.22852 4.0752C7.16798 4.01469 7.08559 3.98146 7 3.98145ZM4.5625 5.4873C4.47671 5.4873 4.39367 5.52137 4.33301 5.58203C4.27235 5.64269 4.23828 5.72574 4.23828 5.81152C4.23839 5.89712 4.2725 5.97948 4.33301 6.04004L4.64355 6.34863H3.48633C3.40078 6.34863 3.31835 6.38293 3.25781 6.44336C3.19727 6.5039 3.1631 6.58626 3.16309 6.67188C3.16309 6.75752 3.19725 6.83983 3.25781 6.90039C3.31836 6.96087 3.40075 6.99512 3.48633 6.99512H4.64355L4.33398 7.30469C4.27336 7.36532 4.23929 7.44746 4.23926 7.5332C4.23926 7.61893 4.2734 7.70107 4.33398 7.76172C4.39461 7.82235 4.47676 7.85641 4.5625 7.85645C4.64828 7.85645 4.73035 7.82237 4.79102 7.76172L5.65234 6.90137C5.68245 6.87137 5.70636 6.83515 5.72266 6.7959C5.73893 6.75667 5.74707 6.71434 5.74707 6.67188C5.74703 6.62961 5.73882 6.58788 5.72266 6.54883C5.70636 6.50958 5.68245 6.47336 5.65234 6.44336L4.79102 5.58203C4.73045 5.52151 4.64811 5.48741 4.5625 5.4873ZM9.43848 5.4873C9.35269 5.4873 9.26965 5.52137 9.20898 5.58203L8.34863 6.44336C8.31857 6.47332 8.29462 6.50866 8.27832 6.54785C8.26202 6.5871 8.25293 6.62937 8.25293 6.67188C8.25296 6.71431 8.26205 6.75671 8.27832 6.7959C8.29461 6.83496 8.31865 6.87051 8.34863 6.90039L9.20898 7.76172C9.26965 7.82238 9.35269 7.85645 9.43848 7.85645C9.5241 7.85632 9.60644 7.82227 9.66699 7.76172C9.72754 7.70116 9.76161 7.61883 9.76172 7.5332C9.76172 7.44741 9.72766 7.36437 9.66699 7.30371L9.35645 6.99512H10.5137C10.5993 6.99512 10.6816 6.96091 10.7422 6.90039C10.8027 6.83983 10.8369 6.75752 10.8369 6.67188C10.8369 6.58626 10.8027 6.5039 10.7422 6.44336C10.6816 6.38288 10.5993 6.34863 10.5137 6.34863H9.35645L9.66699 6.03906C9.7275 5.97842 9.76172 5.89622 9.76172 5.81055C9.76171 5.72487 9.72751 5.64267 9.66699 5.58203C9.60644 5.52148 9.5241 5.48743 9.43848 5.4873Z" fill="#00811F"/>
</svg>
