<svg width="15" height="15" viewBox="0 0 15 15" fill="none" xmlns="http://www.w3.org/2000/svg">
<path d="M7.31299 2.14062C6.18811 2.14063 5.08849 2.47419 4.15318 3.09914C3.21788 3.72409 2.4889 4.61236 2.05843 5.65161C1.62795 6.69087 1.51532 7.83443 1.73477 8.9377C1.95423 10.041 2.49591 11.0544 3.29132 11.8498C4.08673 12.6452 5.10015 13.1869 6.20341 13.4063C7.30668 13.6258 8.45025 13.5132 9.4895 13.0827C10.5288 12.6522 11.417 11.9232 12.042 10.9879C12.6669 10.0526 13.0005 8.95301 13.0005 7.82812C12.9989 6.32019 12.3992 4.87448 11.3329 3.80821C10.2666 2.74195 8.82092 2.14222 7.31299 2.14062ZM9.37252 9.26859C9.41317 9.30924 9.44541 9.3575 9.46741 9.41061C9.48941 9.46372 9.50073 9.52064 9.50073 9.57812C9.50073 9.63561 9.48941 9.69253 9.46741 9.74564C9.44541 9.79875 9.41317 9.84701 9.37252 9.88766C9.33187 9.9283 9.28362 9.96055 9.23051 9.98255C9.1774 10.0045 9.12048 10.0159 9.06299 10.0159C9.00551 10.0159 8.94858 10.0045 8.89547 9.98255C8.84236 9.96055 8.79411 9.9283 8.75346 9.88766L7.31299 8.44664L5.87252 9.88766C5.83187 9.9283 5.78362 9.96055 5.73051 9.98255C5.6774 10.0045 5.62048 10.0159 5.56299 10.0159C5.50551 10.0159 5.44858 10.0045 5.39547 9.98255C5.34236 9.96055 5.29411 9.9283 5.25346 9.88766C5.21281 9.84701 5.18057 9.79875 5.15857 9.74564C5.13657 9.69253 5.12525 9.63561 5.12525 9.57812C5.12525 9.52064 5.13657 9.46372 5.15857 9.41061C5.18057 9.3575 5.21281 9.30924 5.25346 9.26859L6.69448 7.82812L5.25346 6.38766C5.17137 6.30556 5.12525 6.19422 5.12525 6.07812C5.12525 5.96203 5.17137 5.85069 5.25346 5.76859C5.33555 5.6865 5.44689 5.64038 5.56299 5.64038C5.67909 5.64038 5.79043 5.6865 5.87252 5.76859L7.31299 7.20961L8.75346 5.76859C8.79411 5.72795 8.84236 5.6957 8.89547 5.6737C8.94858 5.6517 9.00551 5.64038 9.06299 5.64038C9.12048 5.64038 9.1774 5.6517 9.23051 5.6737C9.28362 5.6957 9.33187 5.72795 9.37252 5.76859C9.41317 5.80924 9.44541 5.8575 9.46741 5.91061C9.48941 5.96372 9.50073 6.02064 9.50073 6.07812C9.50073 6.13561 9.48941 6.19253 9.46741 6.24564C9.44541 6.29875 9.41317 6.34701 9.37252 6.38766L7.93151 7.82812L9.37252 9.26859Z" fill="#00811F"/>
</svg>
