<svg width="15" height="15" viewBox="0 0 15 15" fill="none" xmlns="http://www.w3.org/2000/svg">
<path d="M7.31299 2.14062C6.18811 2.14063 5.08849 2.47419 4.15318 3.09914C3.21788 3.72409 2.4889 4.61236 2.05843 5.65161C1.62795 6.69087 1.51532 7.83443 1.73477 8.9377C1.95423 10.041 2.49591 11.0544 3.29132 11.8498C4.08673 12.6452 5.10015 13.1869 6.20341 13.4063C7.30668 13.6258 8.45025 13.5132 9.4895 13.0827C10.5288 12.6522 11.417 11.9232 12.042 10.9879C12.6669 10.0526 13.0005 8.95301 13.0005 7.82812C12.9986 6.32028 12.3988 4.87474 11.3326 3.80853C10.2664 2.74233 8.82083 2.14251 7.31299 2.14062ZM6.43799 9.57812C6.43799 9.69416 6.3919 9.80544 6.30985 9.88748C6.2278 9.96953 6.11652 10.0156 6.00049 10.0156C5.88446 10.0156 5.77318 9.96953 5.69113 9.88748C5.60908 9.80544 5.56299 9.69416 5.56299 9.57812V6.07812C5.56299 5.96209 5.60908 5.85081 5.69113 5.76877C5.77318 5.68672 5.88446 5.64062 6.00049 5.64062C6.11652 5.64062 6.2278 5.68672 6.30985 5.76877C6.3919 5.85081 6.43799 5.96209 6.43799 6.07812V9.57812ZM9.06299 9.57812C9.06299 9.69416 9.0169 9.80544 8.93485 9.88748C8.8528 9.96953 8.74152 10.0156 8.62549 10.0156C8.50946 10.0156 8.39818 9.96953 8.31613 9.88748C8.23408 9.80544 8.18799 9.69416 8.18799 9.57812V6.07812C8.18799 5.96209 8.23408 5.85081 8.31613 5.76877C8.39818 5.68672 8.50946 5.64062 8.62549 5.64062C8.74152 5.64062 8.8528 5.68672 8.93485 5.76877C9.0169 5.85081 9.06299 5.96209 9.06299 6.07812V9.57812Z" fill="#00811F"/>
</svg>
