<svg width="14" height="15" viewBox="0 0 14 15" fill="none" xmlns="http://www.w3.org/2000/svg">
<path d="M7 2.14062C5.87512 2.14063 4.7755 2.47419 3.8402 3.09914C2.90489 3.72409 2.17591 4.61236 1.74544 5.65161C1.31496 6.69087 1.20233 7.83443 1.42179 8.9377C1.64124 10.041 2.18292 11.0544 2.97833 11.8498C3.77374 12.6452 4.78716 13.1869 5.89043 13.4063C6.99369 13.6258 8.13726 13.5132 9.17651 13.0827C10.2158 12.6522 11.104 11.9232 11.729 10.9879C12.3539 10.0526 12.6875 8.95301 12.6875 7.82812C12.6859 6.32019 12.0862 4.87448 11.0199 3.80821C9.95364 2.74195 8.50793 2.14222 7 2.14062ZM9.05953 9.26859C9.10018 9.30924 9.13243 9.3575 9.15442 9.41061C9.17642 9.46372 9.18775 9.52064 9.18775 9.57812C9.18775 9.63561 9.17642 9.69253 9.15442 9.74564C9.13243 9.79875 9.10018 9.84701 9.05953 9.88766C9.01889 9.9283 8.97063 9.96055 8.91752 9.98255C8.86441 10.0045 8.80749 10.0159 8.75 10.0159C8.69252 10.0159 8.63559 10.0045 8.58248 9.98255C8.52938 9.96055 8.48112 9.9283 8.44047 9.88766L7 8.44664L5.55953 9.88766C5.51889 9.9283 5.47063 9.96055 5.41752 9.98255C5.36441 10.0045 5.30749 10.0159 5.25 10.0159C5.19252 10.0159 5.13559 10.0045 5.08248 9.98255C5.02938 9.96055 4.98112 9.9283 4.94047 9.88766C4.89982 9.84701 4.86758 9.79875 4.84558 9.74564C4.82358 9.69253 4.81226 9.63561 4.81226 9.57812C4.81226 9.52064 4.82358 9.46372 4.84558 9.41061C4.86758 9.3575 4.89982 9.30924 4.94047 9.26859L6.38149 7.82812L4.94047 6.38766C4.85838 6.30556 4.81226 6.19422 4.81226 6.07812C4.81226 5.96203 4.85838 5.85069 4.94047 5.76859C5.02256 5.6865 5.13391 5.64038 5.25 5.64038C5.3661 5.64038 5.47744 5.6865 5.55953 5.76859L7 7.20961L8.44047 5.76859C8.48112 5.72795 8.52938 5.6957 8.58248 5.6737C8.63559 5.6517 8.69252 5.64038 8.75 5.64038C8.80749 5.64038 8.86441 5.6517 8.91752 5.6737C8.97063 5.6957 9.01889 5.72795 9.05953 5.76859C9.10018 5.80924 9.13243 5.8575 9.15442 5.91061C9.17642 5.96372 9.18775 6.02064 9.18775 6.07812C9.18775 6.13561 9.17642 6.19253 9.15442 6.24564C9.13243 6.29875 9.10018 6.34701 9.05953 6.38766L7.61852 7.82812L9.05953 9.26859Z" fill="#00811F"/>
</svg>
