<svg width="14" height="14" viewBox="0 0 14 14" fill="none" xmlns="http://www.w3.org/2000/svg">
<path d="M12.95 10.2862L8.16755 1.98082C8.04805 1.77734 7.87744 1.60862 7.67264 1.4914C7.46783 1.37417 7.23595 1.3125 6.99998 1.3125C6.764 1.3125 6.53212 1.37417 6.32732 1.4914C6.12252 1.60862 5.95191 1.77734 5.8324 1.98082L1.04998 10.2862C0.934988 10.483 0.87439 10.7069 0.87439 10.9348C0.87439 11.1627 0.934988 11.3866 1.04998 11.5834C1.16795 11.7881 1.33827 11.9577 1.54346 12.0749C1.74864 12.192 1.9813 12.2525 2.21755 12.25H11.7824C12.0185 12.2523 12.2509 12.1918 12.4559 12.0746C12.6608 11.9575 12.831 11.7879 12.9489 11.5834C13.064 11.3867 13.1248 11.1629 13.125 10.9349C13.1252 10.707 13.0648 10.4831 12.95 10.2862ZM6.56248 5.68754C6.56248 5.5715 6.60857 5.46022 6.69062 5.37818C6.77266 5.29613 6.88394 5.25004 6.99998 5.25004C7.11601 5.25004 7.22729 5.29613 7.30934 5.37818C7.39138 5.46022 7.43748 5.5715 7.43748 5.68754V7.87504C7.43748 7.99107 7.39138 8.10235 7.30934 8.1844C7.22729 8.26644 7.11601 8.31254 6.99998 8.31254C6.88394 8.31254 6.77266 8.26644 6.69062 8.1844C6.60857 8.10235 6.56248 7.99107 6.56248 7.87504V5.68754ZM6.99998 10.5C6.87018 10.5 6.7433 10.4615 6.63538 10.3894C6.52746 10.3173 6.44335 10.2148 6.39368 10.0949C6.34401 9.97501 6.33101 9.84306 6.35634 9.71576C6.38166 9.58846 6.44416 9.47153 6.53594 9.37975C6.62772 9.28797 6.74465 9.22547 6.87195 9.20015C6.99925 9.17482 7.1312 9.18782 7.25111 9.23749C7.37103 9.28716 7.47352 9.37127 7.54563 9.47919C7.61774 9.58711 7.65623 9.71399 7.65623 9.84379C7.65623 10.0178 7.58709 10.1848 7.46402 10.3078C7.34094 10.4309 7.17402 10.5 6.99998 10.5Z" fill="#00811F"/>
</svg>
