<?xml version="1.0" encoding="UTF-8"?>
<svg width="5px" height="4px" viewBox="0 0 5 4" version="1.1" xmlns="http://www.w3.org/2000/svg" xmlns:xlink="http://www.w3.org/1999/xlink">
    <title>Path</title>
    <g id="Page-1" stroke="none" stroke-width="1" fill="none" fill-rule="evenodd">
        <g id="Vector" transform="translate(0, -6)" fill="#000000" fill-rule="nonzero">
            <path d="M4.85299501,6.8964313 C4.89958879,6.94284337 4.93655995,6.99799433 4.96178492,7.05871368 C4.98700989,7.11943302 5,7.18453958 5,7.25028556 C5,7.31603155 4.98700989,7.38113811 4.96178492,7.44185745 C4.93655995,7.5025768 4.89958879,7.55772776 4.85299501,7.60413982 L2.85383377,9.60236311 C2.8074088,9.64894392 2.75223195,9.68588884 2.69148411,9.71111086 C2.63072737,9.73633288 2.56559914,9.74929913 2.4998223,9.74929913 C2.43403656,9.74929913 2.36890833,9.73633288 2.3081516,9.71111086 C2.24740376,9.68588884 2.19223579,9.64894392 2.14580194,9.60236311 L0.146638921,7.60413982 C0.0527475584,7.51029438 0,7.38300311 0,7.25028556 C0,7.11756801 0.0527475584,6.99028563 0.146638921,6.8964313 C0.240530195,6.80258586 0.367874989,6.74986829 0.500657502,6.74986829 C0.633440015,6.74986829 0.76078392,6.80258586 0.854675194,6.8964313 L2.50023101,8.5403918 L4.14579839,6.89518796 C4.19229443,6.8488203 4.24748017,6.81207076 4.30820136,6.78703524 C4.36891366,6.7620086 4.43397081,6.74918445 4.49965881,6.74929913 C4.56533792,6.74941536 4.63035064,6.76247041 4.6909741,6.78771019 C4.75160644,6.81295886 4.8066589,6.84990378 4.85299501,6.8964313 Z" id="Path"></path>
        </g>
    </g>
</svg>
