<?xml version="1.0" encoding="UTF-8"?>
<svg width="8px" height="6px" viewBox="0 0 8 6" version="1.1" xmlns="http://www.w3.org/2000/svg" xmlns:xlink="http://www.w3.org/1999/xlink">
    <title>Path</title>
    <g id="Page-1" stroke="none" stroke-width="1" fill="none" fill-rule="evenodd">
        <g id="arrow-down-solid" transform="translate(0.25, 0.9379)" fill="#000000" fill-rule="nonzero">
            <path d="M6.49966861,0 L0.500336861,0 C0.401399991,-6.9762135e-05 0.304665539,0.0306742379 0.222377463,0.0883542378 C0.140089388,0.146034238 0.0759499361,0.228060238 0.0380781974,0.324044238 C0.000206457164,0.420028238 -0.00969509603,0.525644238 0.00962806376,0.627536238 C0.0289512236,0.729442238 0.0766285273,0.823018238 0.146627319,0.896448238 L3.14628587,4.04644824 C3.19272064,4.09525224 3.24786111,4.13397624 3.30854761,4.16039424 C3.36924745,4.18682624 3.43429346,4.20042024 3.5,4.20042024 C3.56570535,4.20042024 3.63075136,4.18682624 3.6914512,4.16039424 C3.7521377,4.13397624 3.80727817,4.09525224 3.85371295,4.04644824 L6.85337549,0.896448238 C6.92336762,0.823018238 6.97104226,0.729442238 6.99037342,0.627536238 C7.00969125,0.525644238 6.99979903,0.420028238 6.96192329,0.324044238 C6.92404755,0.228060238 6.85990809,0.146034238 6.77762401,0.0883542378 C6.69533994,0.0306742379 6.59860415,-6.9762135e-05 6.49966861,0 Z" id="Path"></path>
        </g>
    </g>
</svg>
