<?xml version="1.0" encoding="UTF-8"?>
<svg width="6px" height="4px" viewBox="0 0 6 4" version="1.1" xmlns="http://www.w3.org/2000/svg" xmlns:xlink="http://www.w3.org/1999/xlink">
    <title>Path</title>
    <g id="Page-1" stroke="none" stroke-width="1" fill="none" fill-rule="evenodd">
        <path d="M4.89262058,0.937939915 L0.607383612,0.937939915 C0.536714419,0.93789 0.467618382,0.95985 0.408841185,1.00105 C0.350063988,1.04225 0.304250094,1.10084 0.277198852,1.1694 C0.250147609,1.23796 0.243075071,1.3134 0.256877328,1.38618 C0.270679585,1.45897 0.304734802,1.52581 0.354733939,1.57826 L2.49734719,3.82826 C2.53051488,3.86312 2.56990093,3.89078 2.61324843,3.90965 C2.65660546,3.92853 2.7030669,3.93824 2.75000014,3.93824 C2.79693253,3.93824 2.84339397,3.92853 2.886751,3.90965 C2.9300985,3.89078 2.96948455,3.86312 3.00265225,3.82826 L5.14526835,1.57826 C5.19526273,1.52581 5.22931604,1.45897 5.24312401,1.38618 C5.25692246,1.3134 5.24985659,1.23796 5.22280249,1.1694 C5.19574839,1.10084 5.14993449,1.04225 5.09116015,1.00105 C5.03238581,0.95985 4.96328882,0.93789 4.89262058,0.937939915 Z" id="Path" fill="#000000" fill-rule="nonzero"></path>
    </g>
</svg>
