<?xml version="1.0" encoding="UTF-8"?>
<svg width="7px" height="5px" viewBox="0 0 7 5" version="1.1" xmlns="http://www.w3.org/2000/svg" xmlns:xlink="http://www.w3.org/1999/xlink">
    <title>Path</title>
    <g id="Page-1" stroke="none" stroke-width="1" fill="none" fill-rule="evenodd">
        <g id="arrow-down" transform="translate(0, 0.7493)" fill="#000000" fill-rule="nonzero">
            <path d="M6.79419301,0.205986105 C6.85942431,0.270963003 6.91118393,0.348174347 6.94649889,0.433181437 C6.98181385,0.518188513 7,0.609337697 7,0.701382069 C7,0.793426455 6.98181385,0.884575639 6.94649889,0.969582715 C6.91118393,1.05458981 6.85942431,1.13180115 6.79419301,1.19677803 L3.99536728,3.99429064 C3.93037232,4.05950377 3.85312473,4.11122666 3.76807775,4.14653749 C3.68301832,4.18184832 3.5918388,4.20000107 3.49975122,4.20000107 C3.40765118,4.20000107 3.31647166,4.18184832 3.23141224,4.14653749 C3.14636526,4.11122666 3.06913011,4.05950377 3.00412272,3.99429064 L0.205294489,1.19677803 C0.0738465818,1.06539442 0,0.887186639 0,0.701382069 C0,0.515577499 0.0738465818,0.337382167 0.205294489,0.205986105 C0.336742273,0.0746024893 0.515024985,0.000797891348 0.700920503,0.000797891348 C0.886816021,0.000797891348 1.06509749,0.0746024893 1.19654527,0.205986105 L3.50032341,2.50753081 L5.80411775,0.204245429 C5.8692122,0.139330705 5.94647224,0.0878813493 6.0314819,0.0528316213 C6.11647912,0.0177943253 6.20755913,-0.000159484652 6.29952233,0 C6.39147309,0.000163789348 6.4824909,0.0184408593 6.56736374,0.0537765513 C6.65224902,0.0891246893 6.72932246,0.140847577 6.79419301,0.205986105 Z" id="Path"></path>
        </g>
    </g>
</svg>
