<?xml version="1.0" encoding="UTF-8"?>
<svg width="12px" height="13px" viewBox="0 0 12 13" version="1.1" xmlns="http://www.w3.org/2000/svg" xmlns:xlink="http://www.w3.org/1999/xlink">
    <title>Shape</title>
    <g id="Page-1" stroke="none" stroke-width="1" fill="none" fill-rule="evenodd">
        <g id="CalendarBlank" transform="translate(0.5312, 0.6562)" fill="#000000" fill-rule="nonzero">
            <path d="M9.84375,0.875 L8.74995,0.875 L8.74995,0.65625 C8.74995,0.4822 8.68085,0.315282 8.55775,0.192211 C8.43472,0.06914 8.2678,0 8.09375,0 C7.9197,0 7.75278,0.06914 7.62971,0.192211 C7.50664,0.315282 7.4375,0.4822 7.4375,0.65625 L7.4375,0.875 L3.5,0.875 L3.5,0.65625 C3.5,0.4822 3.43086,0.315282 3.30779,0.192211 C3.18472,0.06914 3.0178,0 2.84375,0 C2.6697,0 2.50278,0.06914 2.37971,0.192211 C2.25664,0.315282 2.1875,0.4822 2.1875,0.65625 L2.1875,0.875 L1.09375,0.875 C0.80367,0.875 0.52547,0.99023 0.32035,1.19535 C0.11523,1.40047 0,1.67867 0,1.96875 L0,10.71875 C0,11.00885 0.11523,11.28705 0.32035,11.49215 C0.52547,11.69725 0.80367,11.81255 1.09375,11.81255 L9.84375,11.81255 C10.13385,11.81255 10.41205,11.69725 10.61715,11.49215 C10.82225,11.28705 10.93755,11.00885 10.93755,10.71875 L10.93755,1.96875 C10.93755,1.67867 10.82225,1.40047 10.61715,1.19535 C10.41205,0.99023 10.13385,0.875 9.84375,0.875 Z M2.1875,2.1875 C2.1875,2.36155 2.25664,2.52847 2.37971,2.65154 C2.50278,2.77461 2.6697,2.84375 2.84375,2.84375 C3.0178,2.84375 3.18472,2.77461 3.30779,2.65154 C3.43086,2.52847 3.5,2.36155 3.5,2.1875 L7.4375,2.1875 C7.4375,2.36155 7.50664,2.52847 7.62971,2.65154 C7.75278,2.77461 7.9197,2.84375 8.09375,2.84375 C8.2678,2.84375 8.43472,2.77461 8.55775,2.65154 C8.68085,2.52847 8.74995,2.36155 8.74995,2.1875 L9.62495,2.1875 L9.62495,3.5 L1.3125,3.5 L1.3125,2.1875 L2.1875,2.1875 Z M1.3125,10.49995 L1.3125,4.8125 L9.62495,4.8125 L9.62495,10.49995 L1.3125,10.49995 Z" id="Shape"></path>
        </g>
    </g>
</svg>
