<svg width="14" height="15" viewBox="0 0 14 15" fill="none" xmlns="http://www.w3.org/2000/svg">
<path d="M4.3482 8.4018C4.28716 8.34075 4.23874 8.26828 4.2057 8.18852C4.17266 8.10877 4.15566 8.02328 4.15566 7.93695C4.15566 7.85062 4.17266 7.76514 4.2057 7.68538C4.23874 7.60562 4.28716 7.53315 4.3482 7.47211C4.40925 7.41107 4.48172 7.36264 4.56148 7.32961C4.64123 7.29657 4.72672 7.27956 4.81305 7.27956C4.89938 7.27956 4.98486 7.29657 5.06462 7.32961C5.14438 7.36264 5.21685 7.41107 5.27789 7.47211L6.125 8.32031L8.7232 5.72156C8.84649 5.59828 9.0137 5.52902 9.18805 5.52902C9.3624 5.52902 9.52961 5.59828 9.65289 5.72156C9.77617 5.84485 9.84544 6.01206 9.84544 6.18641C9.84544 6.36076 9.77617 6.52797 9.65289 6.65125L6.59039 9.71375C6.52942 9.77493 6.45698 9.82347 6.37721 9.8566C6.29744 9.88972 6.21192 9.90677 6.12555 9.90677C6.03918 9.90677 5.95365 9.88972 5.87388 9.8566C5.79412 9.82347 5.72167 9.77493 5.6607 9.71375L4.3482 8.4018ZM12.4688 3.125V11.875C12.4688 12.1651 12.3535 12.4433 12.1484 12.6484C11.9433 12.8535 11.6651 12.9688 11.375 12.9688H2.625C2.33492 12.9688 2.05672 12.8535 1.8516 12.6484C1.64648 12.4433 1.53125 12.1651 1.53125 11.875V3.125C1.53125 2.83492 1.64648 2.55672 1.8516 2.3516C2.05672 2.14648 2.33492 2.03125 2.625 2.03125H11.375C11.6651 2.03125 11.9433 2.14648 12.1484 2.3516C12.3535 2.55672 12.4688 2.83492 12.4688 3.125ZM11.1562 3.34375H2.84375V11.6562H11.1562V3.34375Z" fill="black"/>
</svg>
