<svg width="19" height="19" viewBox="0 0 19 19" fill="none" xmlns="http://www.w3.org/2000/svg">
<path d="M14.7366 13.6794C14.8951 13.8379 14.9841 14.0528 14.9841 14.277C14.9841 14.5012 14.8951 14.7162 14.7366 14.8747C14.5781 15.0332 14.3631 15.1222 14.1389 15.1222C13.9147 15.1222 13.6998 15.0332 13.5413 14.8747L9.07712 10.4091L4.61157 14.8733C4.45306 15.0318 4.23808 15.1208 4.01391 15.1208C3.78975 15.1208 3.57477 15.0318 3.41626 14.8733C3.25775 14.7148 3.1687 14.4998 3.1687 14.2756C3.1687 14.0514 3.25775 13.8365 3.41626 13.6779L7.8818 9.21381L3.41766 4.74826C3.25916 4.58975 3.17011 4.37477 3.17011 4.1506C3.17011 3.92644 3.25916 3.71146 3.41766 3.55295C3.57617 3.39444 3.79116 3.30539 4.01532 3.30539C4.23949 3.30539 4.45447 3.39444 4.61298 3.55295L9.07712 8.01849L13.5427 3.55224C13.7012 3.39374 13.9162 3.30469 14.1403 3.30469C14.3645 3.30469 14.5795 3.39374 14.738 3.55224C14.8965 3.71075 14.9855 3.92574 14.9855 4.1499C14.9855 4.37407 14.8965 4.58905 14.738 4.74756L10.2724 9.21381L14.7366 13.6794Z" fill="black"/>
</svg>
