<svg width="19" height="18" viewBox="0 0 19 18" fill="none" xmlns="http://www.w3.org/2000/svg">
<path d="M13.9457 11.8311L15.497 13.3824V14.14H3.15927V13.3824L4.7105 11.8311V8.00718C4.7105 6.80467 5.01113 5.75849 5.61238 4.86864C6.23769 3.97878 7.09146 3.40158 8.17372 3.13703V2.5959C8.17372 2.28325 8.28195 2.0187 8.4984 1.80225C8.71485 1.56175 8.99142 1.4415 9.32812 1.4415C9.66483 1.4415 9.9414 1.56175 10.1579 1.80225C10.3743 2.0187 10.4825 2.28325 10.4825 2.5959V3.13703C11.5648 3.40158 12.4065 3.97878 13.0078 4.86864C13.6331 5.75849 13.9457 6.80467 13.9457 8.00718V11.8311ZM9.32812 16.4488C8.89522 16.4488 8.52245 16.3045 8.20979 16.0159C7.92119 15.7273 7.77689 15.3665 7.77689 14.9336H10.8794C10.8794 15.3425 10.723 15.7032 10.4104 16.0159C10.0977 16.3045 9.73698 16.4488 9.32812 16.4488Z" fill="#00811F"/>
</svg>
