<svg width="15" height="16" viewBox="0 0 15 16" fill="none" xmlns="http://www.w3.org/2000/svg">
<path d="M13.9656 11.2302C13.5754 10.558 12.9953 8.65602 12.9953 6.17188C12.9953 4.68003 12.4026 3.24929 11.3478 2.1944C10.2929 1.13951 8.86212 0.546875 7.37028 0.546875C5.87844 0.546875 4.4477 1.13951 3.3928 2.1944C2.33791 3.24929 1.74528 4.68003 1.74528 6.17188C1.74528 8.65672 1.1645 10.558 0.774263 11.2302C0.67461 11.401 0.62178 11.5952 0.6211 11.793C0.620421 11.9908 0.671917 12.1853 0.770395 12.3569C0.868873 12.5285 1.01085 12.671 1.18201 12.7702C1.35317 12.8694 1.54746 12.9217 1.74528 12.9219H4.61473C4.74451 13.5569 5.08964 14.1276 5.59175 14.5375C6.09386 14.9474 6.72212 15.1712 7.37028 15.1712C8.01844 15.1712 8.6467 14.9474 9.14881 14.5375C9.65092 14.1276 9.99605 13.5569 10.1258 12.9219H12.9953C13.193 12.9216 13.3872 12.8692 13.5583 12.77C13.7294 12.6707 13.8712 12.5282 13.9696 12.3566C14.068 12.1851 14.1195 11.9906 14.1188 11.7928C14.118 11.5951 14.0652 11.401 13.9656 11.2302ZM7.37028 14.0469C7.0214 14.0468 6.68113 13.9385 6.39631 13.7371C6.11148 13.5356 5.8961 13.2508 5.77981 12.9219H8.96075C8.84446 13.2508 8.62908 13.5356 8.34425 13.7371C8.05942 13.9385 7.71916 14.0468 7.37028 14.0469Z" fill="black"/>
</svg>
