<svg width="24" height="24" viewBox="0 0 24 24" fill="none" xmlns="http://www.w3.org/2000/svg">
<path fill-rule="evenodd" clip-rule="evenodd" d="M19.5001 9.75C19.5001 6.825 17.1751 4.5 14.2501 4.5C11.3251 4.5 9.0001 6.825 9.0001 9.75C9.0001 12.675 11.3251 15 14.2501 15C17.1751 15 19.5001 12.675 19.5001 9.75ZM7.5001 9.75C7.5001 6 10.5001 3 14.2501 3C18.0001 3 21.0001 6 21.0001 9.75C21.0001 13.5 18.0001 16.5 14.2501 16.5C12.6474 16.5 11.1818 15.9521 10.0287 15.0318L4.25743 20.8031L3.19678 19.7425L8.96811 13.9711C8.04797 12.8181 7.5001 11.3525 7.5001 9.75Z" fill="#404B4F"/>
</svg>
